<svg xmlns="http://www.w3.org/2000/svg" width="200" height="45" viewBox="0 0 209.553 51"><path d="M22.523,143.611H88.061a1.672,1.672,0,0,0,1.3-.635,1.436,1.436,0,0,0,.228-1.351l-2.6-7.464c.315.01.594.02.829.032a1.649,1.649,0,0,0,1.424-.666,1.411,1.411,0,0,0,.11-1.481l-3.272-6.326c.915-.218,1.652-.364,2.17-.457a1.593,1.593,0,0,0,1.156-.846,1.407,1.407,0,0,0-.066-1.368h0L75.586,100.665a1.611,1.611,0,0,0-1.133-.733,1.69,1.69,0,0,0-1.326.355L54.862,115.314a1.721,1.721,0,0,0-.185-.012H33.417a1.6,1.6,0,0,0-1.492.941L21.031,141.521a1.441,1.441,0,0,0,.161,1.414A1.656,1.656,0,0,0,22.523,143.611Zm36.168-1.905c3.539-2.042,9.726-5.375,14.713-6.392a60.211,60.211,0,0,1,11.422-1.157l2.63,7.549Zm28.5-9.449c-.453-.016-.991-.027-1.6-.031h-.047a62.786,62.786,0,0,0-12.575,1.21,44.11,44.11,0,0,0-10.1,3.77A68.733,68.733,0,0,1,74.134,130.1a57.727,57.727,0,0,1,9.942-3.854Zm-30.9-15.569,17.794-14.641,13.183,21.459a57.473,57.473,0,0,0-14.09,4.91,72.1,72.1,0,0,0-16.887,11.8Zm-22.571.52H54.239v24.5H23.171Z" transform="translate(-20.916 -99.911)" fill="#013896"/><text transform="translate(76.553 40)" fill="#cf142b" font-size="38" font-family="AvenirLTStd-Book, Avenir LT Std"><tspan x="0" y="0">lecteurs</tspan></text></svg>