<svg width="135" height="130" xmlns="http://www.w3.org/2000/svg" xml:space="preserve" enable-background="new 0 0 250 250" version="1.1">
 <defs>
  <pattern overflow="visible" viewBox="2.1 -70.9 69 69" id="Òî_xF7_å_xF7_íûé_óçîð__x22_Ïîëüêà_x22_" patternUnits="userSpaceOnUse" height="69" width="69" y="10085" x="-2645">
   <g id="svg_1">
    <polygon id="svg_2" points="71.1,-1.9 2.1,-1.9 2.1,-70.9 71.1,-70.9   " fill="none"/>
    <polygon id="svg_3" points="71.1,-1.9 2.1,-1.9 2.1,-70.9 71.1,-70.9   " fill="#F7BC60"/>
    <g id="svg_4">
     <path id="svg_5" d="m61.8,-71.7c0,0.1 0,0.1 0,0.2c-0.1,0.1 -0.1,0.1 -0.2,0.1c-0.1,0.1 -0.1,0.3 -0.1,0.4c-0.2,0.1 0,0.2 0,0.3c0,0 0,0.1 0,0.2c0,0.1 0,0.3 0.1,0.4c0.1,0.2 0.3,0.4 0.4,0.5c0.2,0.1 0.4,0.6 0.6,0.6c0.2,0 0.4,-0.1 0.5,-0.1c0.2,0 0.4,0 0.6,-0.1c0.2,-0.1 0.1,-0.3 0.3,-0.5c0.1,-0.1 0.3,0 0.4,-0.1c0.2,-0.1 0.3,-0.3 0.4,-0.5c0,-0.1 0,-0.1 0,-0.2c0,-0.1 0.1,-0.2 0.1,-0.3c0,-0.1 -0.1,-0.1 -0.1,-0.2c0,-0.1 0,-0.2 0,-0.3c0,-0.2 0,-0.4 -0.1,-0.5c-0.4,-0.7 -1.2,-0.9 -2,-0.8c-0.2,0 -0.3,0.1 -0.4,0.2c-0.2,0.1 -0.1,0.2 -0.3,0.2c-0.1,0 -0.2,0.1 -0.2,0.2c0,0.3 0,0.3 0,0.3c0,0.1 0,0.1 0,0" fill="#FFFFFF"/>
     <path id="svg_6" d="m54.1,-71.7c0,0.1 0,0.1 0,0.2c-0.1,0.1 -0.1,0.1 -0.2,0.1c-0.1,0.1 -0.1,0.3 -0.1,0.4c-0.2,0.1 0,0.2 0,0.3c0,0 0,0.1 0,0.2c0,0.1 0,0.3 0.1,0.4c0.1,0.2 0.3,0.4 0.4,0.5c0.2,0.1 0.4,0.6 0.6,0.6c0.2,0 0.4,-0.1 0.5,-0.1c0.2,0 0.4,0 0.6,-0.1c0.2,-0.1 0.1,-0.3 0.3,-0.5c0.1,-0.1 0.3,0 0.4,-0.1c0.2,-0.1 0.3,-0.3 0.4,-0.5c0,-0.1 0,-0.1 0,-0.2c0,-0.1 0.1,-0.2 0.1,-0.3c0,-0.1 -0.1,-0.1 -0.1,-0.2c0,-0.1 0,-0.2 0,-0.3c0,-0.2 0,-0.4 -0.1,-0.5c-0.4,-0.7 -1.2,-0.9 -2,-0.8c-0.2,0 -0.3,0.1 -0.4,0.2c-0.2,0.1 -0.1,0.2 -0.3,0.2c-0.1,0 -0.2,0.1 -0.2,0.2c0,0.3 0,0.3 0,0.3c0,0.1 0,0.1 0,0" fill="#FFFFFF"/>
     <path id="svg_7" d="m46.4,-71.7c0,0.1 0,0.1 0,0.2c-0.1,0.1 -0.1,0.1 -0.2,0.1c-0.1,0.1 -0.1,0.3 -0.1,0.4c-0.2,0.1 0,0.2 0,0.3c0,0 0,0.1 0,0.2c0,0.1 0,0.3 0.1,0.4c0.1,0.2 0.3,0.4 0.4,0.5c0.2,0.1 0.4,0.6 0.6,0.6c0.2,0 0.4,-0.1 0.5,-0.1c0.2,0 0.4,0 0.6,-0.1c0.2,-0.1 0.1,-0.3 0.3,-0.5c0.1,-0.1 0.3,0 0.4,-0.1c0.2,-0.1 0.3,-0.3 0.4,-0.5c0,-0.1 0,-0.1 0,-0.2c0,-0.1 0.1,-0.2 0.1,-0.3c0,-0.1 -0.1,-0.1 -0.1,-0.2c0,-0.1 0,-0.2 0,-0.3c0,-0.2 0,-0.4 -0.1,-0.5c-0.4,-0.7 -1.2,-0.9 -2,-0.8c-0.2,0 -0.3,0.1 -0.4,0.2c-0.2,0.1 -0.1,0.2 -0.3,0.2c-0.1,0 -0.2,0.1 -0.2,0.2c0,0.3 0,0.3 0,0.3c0,0.1 0,0.1 0,0" fill="#FFFFFF"/>
     <path id="svg_8" d="m38.8,-71.7c0,0.1 0,0.1 0,0.2c-0.1,0.1 -0.1,0.1 -0.2,0.1c-0.1,0.1 -0.1,0.3 -0.1,0.4c-0.2,0.1 0,0.2 0,0.3c0,0 0,0.1 0,0.2c0,0.1 0,0.3 0.1,0.4c0.1,0.2 0.3,0.4 0.4,0.5c0.2,0.1 0.4,0.6 0.6,0.6c0.2,0 0.4,-0.1 0.5,-0.1c0.2,0 0.4,0 0.6,-0.1c0.2,-0.1 0.1,-0.3 0.3,-0.5c0.1,-0.1 0.3,0 0.4,-0.1c0.2,-0.1 0.3,-0.3 0.4,-0.5c0,-0.1 0,-0.1 0,-0.2c0,-0.1 0.1,-0.2 0.1,-0.3c0,-0.1 -0.1,-0.1 -0.1,-0.2c0,-0.1 0,-0.2 0,-0.3c0,-0.2 0,-0.4 -0.1,-0.5c-0.4,-0.7 -1.2,-0.9 -2,-0.8c-0.2,0 -0.3,0.1 -0.4,0.2c-0.2,0.1 -0.1,0.2 -0.3,0.2c-0.1,0 -0.2,0.1 -0.2,0.2c0,0.3 0,0.3 0,0.3c0,0.1 0,0.1 0,0" fill="#FFFFFF"/>
     <path id="svg_9" d="m31.1,-71.7c0,0.1 0,0.1 0,0.2c-0.1,0.1 -0.1,0.1 -0.2,0.1c-0.1,0.1 -0.1,0.3 -0.1,0.4c-0.2,0.1 0,0.2 0,0.3c0,0 0,0.1 0,0.2c0,0.1 0,0.3 0.1,0.4c0.1,0.2 0.3,0.4 0.4,0.5c0.2,0.1 0.4,0.6 0.6,0.6c0.2,0 0.4,-0.1 0.5,-0.1c0.2,0 0.4,0 0.6,-0.1c0.2,-0.1 0.1,-0.3 0.3,-0.5c0.1,-0.1 0.3,0 0.4,-0.1c0.2,-0.1 0.3,-0.3 0.4,-0.5c0,-0.1 0,-0.1 0,-0.2c0,-0.1 0.1,-0.2 0.1,-0.3c0,-0.1 -0.1,-0.1 -0.1,-0.2c0,-0.1 0,-0.2 0,-0.3c0,-0.2 0,-0.4 -0.1,-0.5c-0.4,-0.7 -1.2,-0.9 -2,-0.8c-0.2,0 -0.3,0.1 -0.4,0.2c-0.2,0.1 -0.1,0.2 -0.3,0.2c-0.1,0 -0.2,0.1 -0.2,0.2c0,0.3 0,0.3 0,0.3c0,0.1 0,0.1 0,0" fill="#FFFFFF"/>
     <path id="svg_10" d="m23.4,-71.7c0,0.1 0,0.1 0,0.2c-0.1,0.1 -0.1,0.1 -0.2,0.1c-0.1,0.1 -0.1,0.3 -0.1,0.4c-0.2,0.1 0,0.2 0,0.3c0,0 0,0.1 0,0.2c0,0.1 0,0.3 0.1,0.4c0.1,0.2 0.3,0.4 0.4,0.5c0.2,0.1 0.4,0.6 0.6,0.6c0.2,0 0.4,-0.1 0.5,-0.1c0.2,0 0.4,0 0.6,-0.1c0.2,-0.1 0.1,-0.3 0.3,-0.5c0.1,-0.1 0.3,0 0.4,-0.1c0.2,-0.1 0.3,-0.3 0.4,-0.5c0,-0.1 0,-0.1 0,-0.2c0,-0.1 0.1,-0.2 0.1,-0.3c0,-0.1 -0.1,-0.1 -0.1,-0.2c0,-0.1 0,-0.2 0,-0.3c0,-0.2 0,-0.4 -0.1,-0.5c-0.4,-0.7 -1.2,-0.9 -2,-0.8c-0.2,0 -0.3,0.1 -0.4,0.2c-0.2,0.1 -0.1,0.2 -0.3,0.2c-0.1,0 -0.2,0.1 -0.2,0.2c0,0.3 0,0.3 0,0.3c0,0.1 0,0.1 0,0" fill="#FFFFFF"/>
     <path id="svg_11" d="m15.8,-71.7c0,0.1 0,0.1 0,0.2c-0.1,0.1 -0.1,0.1 -0.2,0.1c-0.1,0.1 -0.1,0.3 -0.1,0.4c-0.2,0.1 0,0.2 0,0.3c0,0 0,0.1 0,0.2c0,0.1 0,0.3 0.1,0.4c0.1,0.2 0.3,0.4 0.4,0.5c0.2,0.1 0.4,0.6 0.6,0.6c0.2,0 0.4,-0.1 0.5,-0.1c0.2,0 0.4,0 0.6,-0.1c0.2,-0.1 0.1,-0.3 0.3,-0.5c0.1,-0.1 0.3,0 0.4,-0.1c0.2,-0.1 0.3,-0.3 0.4,-0.5c0,-0.1 0,-0.1 0,-0.2c0,-0.1 0.1,-0.2 0.1,-0.3c0,-0.1 -0.1,-0.1 -0.1,-0.2c0,-0.1 0,-0.2 0,-0.3c0,-0.2 0,-0.4 -0.1,-0.5c-0.4,-0.7 -1.2,-0.9 -2,-0.8c-0.2,0 -0.3,0.1 -0.4,0.2c-0.2,0.1 -0.1,0.2 -0.3,0.2c-0.1,0 -0.2,0.1 -0.2,0.2c0,0.3 0,0.3 0,0.3c0,0.1 0,0.1 0,0" fill="#FFFFFF"/>
     <path id="svg_12" d="m8.1,-71.7c0,0.1 0,0.1 0,0.2c-0.1,0.1 -0.1,0.1 -0.2,0.2c-0.1,0.1 -0.1,0.3 -0.1,0.4c-0.2,0.1 0,0.2 0,0.3c0,0 0,0.1 0,0.2c0,0.1 0,0.3 0.1,0.4c0.1,0.2 0.3,0.4 0.4,0.5c0.2,0.1 0.4,0.6 0.6,0.6c0.2,0 0.4,-0.1 0.5,-0.1c0.2,0 0.4,0 0.6,-0.1c0.2,-0.1 0.1,-0.3 0.3,-0.5c0.1,-0.1 0.3,0 0.4,-0.1c0.2,-0.1 0.3,-0.3 0.4,-0.5c0,-0.1 0,-0.1 0,-0.2c0,-0.1 0.1,-0.2 0.1,-0.3c0,-0.1 -0.1,-0.1 -0.1,-0.2c0,-0.1 0,-0.2 0,-0.3c0,-0.2 0,-0.4 -0.1,-0.5c-0.4,-0.7 -1.2,-0.9 -2,-0.8c-0.2,0 -0.3,0.1 -0.4,0.2c-0.2,0.1 -0.1,0.2 -0.3,0.2c-0.1,0 -0.2,0.1 -0.2,0.2c0,0.2 0,0.2 0,0.2c0,0.1 0,0.1 0,0" fill="#FFFFFF"/>
     <path id="svg_13" d="m0.4,-71.7c0,0.1 0,0.1 0,0.2c-0.1,0.1 -0.1,0.1 -0.2,0.1c-0.1,0.1 -0.1,0.3 -0.1,0.4c-0.2,0.1 0,0.2 0,0.3c0,0 0,0.1 0,0.2c0,0.1 0,0.3 0.1,0.4c0.1,0.2 0.3,0.4 0.4,0.5c0.2,0.2 0.4,0.6 0.6,0.7c0.2,0 0.4,-0.1 0.5,-0.1c0.2,0 0.4,0 0.6,-0.1c0.2,-0.1 0.1,-0.3 0.3,-0.5c0.1,-0.1 0.3,0 0.4,-0.1c0.2,-0.1 0.3,-0.3 0.4,-0.5c0,-0.1 0,-0.1 0,-0.2c0,-0.1 0.1,-0.2 0.1,-0.3c0,-0.1 -0.1,-0.1 -0.1,-0.2c0,-0.1 0,-0.2 0,-0.3c0,-0.2 0,-0.4 -0.1,-0.5c-0.4,-0.7 -1.2,-0.9 -2,-0.8c-0.2,0 -0.3,0.1 -0.4,0.2c-0.2,0.1 -0.1,0.2 -0.3,0.2c-0.1,0 -0.2,0.1 -0.2,0.2c0,0.2 0,0.2 0,0.2c0,0.1 0,0.1 0,0" fill="#FFFFFF"/>
    </g>
    <g id="svg_14">
     <path id="svg_15" d="m69.4,-71.7c0,0.1 0,0.1 0,0.2c-0.1,0.1 -0.1,0.1 -0.2,0.1c-0.1,0.1 -0.1,0.3 -0.1,0.4c-0.2,0.1 0,0.2 0,0.3c0,0 0,0.1 0,0.2c0,0.1 0,0.3 0.1,0.4c0.1,0.2 0.3,0.4 0.4,0.5c0.2,0.1 0.4,0.6 0.6,0.6c0.2,0 0.4,-0.1 0.5,-0.1c0.2,0 0.4,0 0.6,-0.1c0.2,-0.1 0.1,-0.3 0.3,-0.5c0.1,-0.1 0.3,0 0.4,-0.1c0.2,-0.1 0.3,-0.3 0.4,-0.5c0,-0.1 0,-0.1 0,-0.2c0,-0.1 0.1,-0.2 0.1,-0.3c0,-0.1 -0.1,-0.1 -0.1,-0.2c0,-0.1 0,-0.2 0,-0.3c0,-0.2 0,-0.4 -0.1,-0.5c-0.4,-0.7 -1.2,-0.9 -2,-0.8c-0.2,0 -0.3,0.1 -0.4,0.2c-0.2,0.1 -0.1,0.2 -0.3,0.2c-0.1,0 -0.2,0.1 -0.2,0.2c0,0.3 0,0.3 0,0.3c0,0.1 0,0.1 0,0" fill="#FFFFFF"/>
    </g>
    <path id="svg_16" d="m0.5,-71.7c0,0.1 0,0.1 0,0.2c-0.1,0.1 -0.1,0.1 -0.2,0.1c-0.1,0.1 -0.1,0.3 -0.1,0.4c-0.2,0.1 0,0.2 0,0.3c0,0 0,0.1 0,0.2c0,0.1 0,0.3 0.1,0.4c0.1,0.2 0.3,0.4 0.4,0.5c0.2,0.2 0.3,0.6 0.6,0.7c0.2,0 0.4,-0.1 0.5,-0.1c0.2,0 0.4,0 0.6,-0.1c0.2,-0.1 0.1,-0.3 0.3,-0.5c0.1,-0.1 0.3,0 0.4,-0.1c0.2,-0.1 0.3,-0.3 0.4,-0.5c0,-0.1 0,-0.1 0,-0.2c0,-0.1 0.1,-0.2 0.1,-0.3c0,-0.1 -0.1,-0.1 -0.1,-0.2c0,-0.1 0,-0.2 0,-0.3c0,-0.2 0,-0.4 -0.1,-0.5c-0.4,-0.7 -1.2,-0.9 -2,-0.8c-0.2,0 -0.3,0.1 -0.4,0.2c-0.2,0.1 -0.1,0.2 -0.3,0.2c-0.1,0 -0.2,0.1 -0.2,0.2c0,0.2 0,0.2 0,0.2c0,0.1 0,0.1 0,0" fill="#FFFFFF"/>
    <g id="svg_17">
     <g id="svg_18">
      <path id="svg_19" d="m69.4,-64c0,0.1 0,0.1 0,0.2c-0.1,0.1 -0.1,0.1 -0.2,0.1c-0.1,0.1 -0.1,0.3 -0.1,0.4c-0.2,0.1 0,0.2 0,0.3c0,0 0,0.1 0,0.2c0,0.1 0,0.3 0.1,0.4c0.1,0.2 0.3,0.4 0.4,0.5c0.2,0.1 0.4,0.6 0.6,0.6c0.2,0 0.4,-0.1 0.5,-0.1c0.2,0 0.4,0 0.6,-0.1c0.2,-0.1 0.1,-0.3 0.3,-0.5c0.1,-0.1 0.3,0 0.4,-0.1c0.2,-0.1 0.3,-0.3 0.4,-0.5c0,-0.1 0,-0.1 0,-0.2c0,-0.1 0.1,-0.2 0.1,-0.3c0,-0.1 -0.1,-0.1 -0.1,-0.2c0,-0.1 0,-0.2 0,-0.3c0,-0.2 0,-0.4 -0.1,-0.5c-0.4,-0.7 -1.2,-0.9 -2,-0.8c-0.2,0 -0.3,0.1 -0.4,0.2c-0.2,0.1 -0.1,0.2 -0.3,0.2c-0.1,0 -0.2,0.1 -0.2,0.2c0,0.3 0,0.2 0,0.3c0,0 0,0 0,0" fill="#FFFFFF"/>
      <path id="svg_20" d="m61.8,-64c0,0.1 0,0.1 0,0.2c-0.1,0.1 -0.1,0.1 -0.2,0.1c-0.1,0.1 -0.1,0.3 -0.1,0.4c-0.2,0.1 0,0.2 0,0.3c0,0 0,0.1 0,0.2c0,0.1 0,0.3 0.1,0.4c0.1,0.2 0.3,0.4 0.4,0.5c0.2,0.1 0.4,0.6 0.6,0.6c0.2,0 0.4,-0.1 0.5,-0.1c0.2,0 0.4,0 0.6,-0.1c0.2,-0.1 0.1,-0.3 0.3,-0.5c0.1,-0.1 0.3,0 0.4,-0.1c0.2,-0.1 0.3,-0.3 0.4,-0.5c0,-0.1 0,-0.1 0,-0.2c0,-0.1 0.1,-0.2 0.1,-0.3c0,-0.1 -0.1,-0.1 -0.1,-0.2c0,-0.1 0,-0.2 0,-0.3c0,-0.2 0,-0.4 -0.1,-0.5c-0.4,-0.7 -1.2,-0.9 -2,-0.8c-0.2,0 -0.3,0.1 -0.4,0.2c-0.2,0.1 -0.1,0.2 -0.3,0.2c-0.1,0 -0.2,0.1 -0.2,0.2c0,0.3 0,0.2 0,0.3c0,0 0,0 0,0" fill="#FFFFFF"/>
      <path id="svg_21" d="m54.1,-64c0,0.1 0,0.1 0,0.2c-0.1,0.1 -0.1,0.1 -0.2,0.1c-0.1,0.1 -0.1,0.3 -0.1,0.4c-0.2,0.1 0,0.2 0,0.3c0,0 0,0.1 0,0.2c0,0.1 0,0.3 0.1,0.4c0.1,0.2 0.3,0.4 0.4,0.5c0.2,0.1 0.4,0.6 0.6,0.6c0.2,0 0.4,-0.1 0.5,-0.1c0.2,0 0.4,0 0.6,-0.1c0.2,-0.1 0.1,-0.3 0.3,-0.5c0.1,-0.1 0.3,0 0.4,-0.1c0.2,-0.1 0.3,-0.3 0.4,-0.5c0,-0.1 0,-0.1 0,-0.2c0,-0.1 0.1,-0.2 0.1,-0.3c0,-0.1 -0.1,-0.1 -0.1,-0.2c0,-0.1 0,-0.2 0,-0.3c0,-0.2 0,-0.4 -0.1,-0.5c-0.4,-0.7 -1.2,-0.9 -2,-0.8c-0.2,0 -0.3,0.1 -0.4,0.2c-0.2,0.1 -0.1,0.2 -0.3,0.2c-0.1,0 -0.2,0.1 -0.2,0.2c0,0.3 0,0.2 0,0.3c0,0 0,0 0,0" fill="#FFFFFF"/>
      <path id="svg_22" d="m46.5,-64c0,0.1 0,0.1 0,0.2c-0.1,0.1 -0.1,0.1 -0.2,0.1c-0.1,0.1 -0.1,0.3 -0.1,0.4c-0.2,0.1 0,0.2 0,0.3c0,0 0,0.1 0,0.2c0,0.1 0,0.3 0.1,0.4c0.1,0.2 0.3,0.4 0.4,0.5c0.2,0.1 0.4,0.6 0.6,0.6c0.2,0 0.4,-0.1 0.5,-0.1c0.2,0 0.4,0 0.6,-0.1c0.2,-0.1 0.1,-0.3 0.3,-0.5c0.1,-0.1 0.3,0 0.4,-0.1c0.2,-0.1 0.3,-0.3 0.4,-0.5c0,-0.1 0,-0.1 0,-0.2c0,-0.1 0.1,-0.2 0.1,-0.3c0,-0.1 -0.1,-0.1 -0.1,-0.2c0,-0.1 0,-0.2 0,-0.3c0,-0.2 0,-0.4 -0.1,-0.5c-0.4,-0.7 -1.2,-0.9 -2,-0.8c-0.2,0 -0.3,0.1 -0.4,0.2c-0.2,0.1 -0.1,0.2 -0.3,0.2c-0.1,0 -0.2,0.1 -0.2,0.2c0,0.3 0,0.2 0,0.3c0,0 0,0 0,0" fill="#FFFFFF"/>
      <path id="svg_23" d="m38.8,-64c0,0.1 0,0.1 0,0.2c-0.1,0.1 -0.1,0.1 -0.2,0.1c-0.1,0.1 -0.1,0.3 -0.1,0.4c-0.2,0.1 0,0.2 0,0.3c0,0 0,0.1 0,0.2c0,0.1 0,0.3 0.1,0.4c0.1,0.2 0.3,0.4 0.4,0.5c0.2,0.1 0.4,0.6 0.6,0.6c0.2,0 0.4,-0.1 0.5,-0.1c0.2,0 0.4,0 0.6,-0.1c0.2,-0.1 0.1,-0.3 0.3,-0.5c0.1,-0.1 0.3,0 0.4,-0.1c0.2,-0.1 0.3,-0.3 0.4,-0.5c0,-0.1 0,-0.1 0,-0.2c0,-0.1 0.1,-0.2 0.1,-0.3c0,-0.1 -0.1,-0.1 -0.1,-0.2c0,-0.1 0,-0.2 0,-0.3c0,-0.2 0,-0.4 -0.1,-0.5c-0.4,-0.7 -1.2,-0.9 -2,-0.8c-0.2,0 -0.3,0.1 -0.4,0.2c-0.2,0.1 -0.1,0.2 -0.3,0.2c-0.1,0 -0.2,0.1 -0.2,0.2c0,0.3 0,0.2 0,0.3c0,0 0,0 0,0" fill="#FFFFFF"/>
      <path id="svg_24" d="m31.1,-64c0,0.1 0,0.1 0,0.2c-0.1,0.1 -0.1,0.1 -0.2,0.1c-0.1,0.1 -0.1,0.3 -0.1,0.4c-0.2,0.1 0,0.2 0,0.3c0,0 0,0.1 0,0.2c0,0.1 0,0.3 0.1,0.4c0.1,0.2 0.3,0.4 0.4,0.5c0.2,0.1 0.4,0.6 0.6,0.6c0.2,0 0.4,-0.1 0.5,-0.1c0.2,0 0.4,0 0.6,-0.1c0.2,-0.1 0.1,-0.3 0.3,-0.5c0.1,-0.1 0.3,0 0.4,-0.1c0.2,-0.1 0.3,-0.3 0.4,-0.5c0,-0.1 0,-0.1 0,-0.2c0,-0.1 0.1,-0.2 0.1,-0.3c0,-0.1 -0.1,-0.1 -0.1,-0.2c0,-0.1 0,-0.2 0,-0.3c0,-0.2 0,-0.4 -0.1,-0.5c-0.4,-0.7 -1.2,-0.9 -2,-0.8c-0.2,0 -0.3,0.1 -0.4,0.2c-0.2,0.1 -0.1,0.2 -0.3,0.2c-0.1,0 -0.2,0.1 -0.2,0.2c0,0.3 0,0.2 0,0.3c0,0 0,0 0,0" fill="#FFFFFF"/>
      <path id="svg_25" d="m23.5,-64c0,0.1 0,0.1 0,0.2c-0.1,0.1 -0.1,0.1 -0.2,0.1c-0.1,0.1 -0.1,0.3 -0.1,0.4c-0.2,0.1 0,0.2 0,0.3c0,0 0,0.1 0,0.2c0,0.1 0,0.3 0.1,0.4c0.1,0.2 0.3,0.4 0.4,0.5c0.2,0.1 0.4,0.6 0.6,0.6c0.2,0 0.4,-0.1 0.5,-0.1c0.2,0 0.4,0 0.6,-0.1c0.2,-0.1 0.1,-0.3 0.3,-0.5c0.1,-0.1 0.3,0 0.4,-0.1c0.2,-0.1 0.3,-0.3 0.4,-0.5c0,-0.1 0,-0.1 0,-0.2c0,-0.1 0.1,-0.2 0.1,-0.3c0,-0.1 -0.1,-0.1 -0.1,-0.2c0,-0.1 0,-0.2 0,-0.3c0,-0.2 0,-0.4 -0.1,-0.5c-0.4,-0.7 -1.2,-0.9 -2,-0.8c-0.2,0 -0.3,0.1 -0.4,0.2c-0.2,0.1 -0.1,0.2 -0.3,0.2c-0.1,0 -0.2,0.1 -0.2,0.2c0,0.3 0,0.2 0,0.3c0,0 0,0 0,0" fill="#FFFFFF"/>
      <path id="svg_26" d="m15.8,-64c0,0.1 0,0.1 0,0.2c-0.1,0.1 -0.1,0.1 -0.2,0.1c-0.1,0.1 -0.1,0.3 -0.1,0.4c-0.2,0.1 0,0.2 0,0.3c0,0 0,0.1 0,0.2c0,0.1 0,0.3 0.1,0.4c0.1,0.2 0.3,0.4 0.4,0.5c0.2,0.1 0.4,0.6 0.6,0.6c0.2,0 0.4,-0.1 0.5,-0.1c0.2,0 0.4,0 0.6,-0.1c0.2,-0.1 0.1,-0.3 0.3,-0.5c0.1,-0.1 0.3,0 0.4,-0.1c0.2,-0.1 0.3,-0.3 0.4,-0.5c0,-0.1 0,-0.1 0,-0.2c0,-0.1 0.1,-0.2 0.1,-0.3c0,-0.1 -0.1,-0.1 -0.1,-0.2c0,-0.1 0,-0.2 0,-0.3c0,-0.2 0,-0.4 -0.1,-0.5c-0.4,-0.7 -1.2,-0.9 -2,-0.8c-0.2,0 -0.3,0.1 -0.4,0.2c-0.2,0.1 -0.1,0.2 -0.3,0.2c-0.1,0 -0.2,0.1 -0.2,0.2c0,0.3 0,0.2 0,0.3c0,0 0,0 0,0" fill="#FFFFFF"/>
      <path id="svg_27" d="m8.2,-64c0,0.1 0,0.1 0,0.2c-0.1,0.1 -0.2,0.1 -0.2,0.1c-0.1,0.1 -0.1,0.3 -0.1,0.4c-0.2,0.1 0,0.2 0,0.3c0,0 0,0.1 0,0.2c0,0.1 0,0.3 0.1,0.4c0,0.2 0.2,0.4 0.3,0.5c0.2,0.1 0.4,0.6 0.6,0.6c0.2,0 0.4,-0.1 0.5,-0.1c0.2,0 0.4,0 0.6,-0.1c0.2,-0.1 0.1,-0.3 0.3,-0.5c0.1,-0.1 0.3,0 0.4,-0.1c0.2,-0.1 0.3,-0.3 0.4,-0.5c0,-0.1 0,-0.1 0,-0.2c0,-0.1 0.1,-0.2 0.1,-0.3c0,-0.1 -0.1,-0.1 -0.1,-0.2c0,-0.1 0,-0.2 0,-0.3c0,-0.2 0,-0.4 -0.1,-0.5c-0.4,-0.7 -1.2,-0.9 -2,-0.8c-0.2,0 -0.3,0.1 -0.4,0.2c-0.2,0.1 -0.1,0.2 -0.3,0.2c-0.1,0 -0.2,0.1 -0.2,0.2c0.1,0.3 0.1,0.2 0.1,0.3c-0.1,0 -0.1,0 0,0" fill="#FFFFFF"/>
      <path id="svg_28" d="m0.5,-64c0,0.1 0,0.1 0,0.2c-0.1,0.1 -0.1,0.1 -0.2,0.1c-0.1,0.1 -0.1,0.3 -0.1,0.4c-0.2,0.1 0,0.2 0,0.3c0,0 0,0.1 0,0.2c0,0.1 0,0.3 0.1,0.4c0.1,0.2 0.3,0.4 0.4,0.5c0.2,0.1 0.4,0.6 0.6,0.6c0.2,0 0.4,-0.1 0.5,-0.1c0.2,0 0.4,0 0.6,-0.1c0.2,-0.1 0.1,-0.3 0.3,-0.5c0.1,0 0.3,0.1 0.4,0c0.2,-0.1 0.3,-0.3 0.4,-0.5c0,-0.1 0,-0.1 0,-0.2c0,-0.1 0.1,-0.2 0.1,-0.3c0,-0.1 -0.1,-0.1 -0.1,-0.2c0,-0.1 0,-0.2 0,-0.3c0,-0.2 0,-0.4 -0.1,-0.5c-0.4,-0.7 -1.2,-0.9 -2,-0.8c-0.2,0 -0.3,0.1 -0.4,0.2c-0.2,0.1 -0.1,0.2 -0.3,0.2c-0.1,0 -0.2,0.1 -0.2,0.2c0,0.2 0,0.1 0,0.2c0,0 0,0 0,0" fill="#FFFFFF"/>
     </g>
     <g id="svg_29">
      <path id="svg_30" d="m69.4,-56.3c0,0.1 0,0.1 0,0.2c-0.1,0.1 -0.1,0.1 -0.2,0.1c-0.1,0.1 -0.1,0.3 -0.1,0.4c-0.2,0.1 0,0.2 0,0.3c0,0 0,0.1 0,0.2c0,0.1 0,0.3 0.1,0.4c0.1,0.2 0.3,0.4 0.4,0.5c0.2,0.1 0.4,0.6 0.6,0.6c0.2,0 0.4,-0.1 0.5,-0.1c0.2,0 0.4,0 0.6,-0.1c0.2,-0.1 0.1,-0.3 0.3,-0.5c0.1,-0.1 0.3,0 0.4,-0.1c0.2,-0.1 0.3,-0.3 0.4,-0.5c0,-0.1 0,-0.1 0,-0.2c0,-0.1 0.1,-0.2 0.1,-0.3c0,-0.1 -0.1,-0.1 -0.1,-0.2c0,-0.1 0,-0.2 0,-0.3c0,-0.2 0,-0.4 -0.1,-0.5c-0.4,-0.7 -1.2,-0.9 -2,-0.8c-0.2,0 -0.3,0.1 -0.4,0.2c-0.2,0.1 -0.1,0.2 -0.3,0.2c-0.1,0 -0.2,0.1 -0.2,0.2c0,0.2 0,0.2 0,0.3c0,0 0,0 0,0" fill="#FFFFFF"/>
      <path id="svg_31" d="m61.8,-56.3c0,0.1 0,0.1 0,0.2c-0.1,0.1 -0.1,0.1 -0.2,0.1c-0.1,0.1 -0.1,0.3 -0.1,0.4c-0.2,0.1 0,0.2 0,0.3c0,0 0,0.1 0,0.2c0,0.1 0,0.3 0.1,0.4c0.1,0.2 0.3,0.4 0.4,0.5c0.2,0.1 0.4,0.6 0.6,0.6c0.2,0 0.4,-0.1 0.5,-0.1c0.2,0 0.4,0 0.6,-0.1c0.2,-0.1 0.1,-0.3 0.3,-0.5c0.1,-0.1 0.3,0 0.4,-0.1c0.2,-0.1 0.3,-0.3 0.4,-0.5c0,-0.1 0,-0.1 0,-0.2c0,-0.1 0.1,-0.2 0.1,-0.3c0,-0.1 -0.1,-0.1 -0.1,-0.2c0,-0.1 0,-0.2 0,-0.3c0,-0.2 0,-0.4 -0.1,-0.5c-0.4,-0.7 -1.2,-0.9 -2,-0.8c-0.2,0 -0.3,0.1 -0.4,0.2c-0.2,0.1 -0.1,0.2 -0.3,0.2c-0.1,0 -0.2,0.1 -0.2,0.2c0,0.2 0,0.2 0,0.3c0,0 0,0 0,0" fill="#FFFFFF"/>
      <path id="svg_32" d="m54.1,-56.3c0,0.1 0,0.1 0,0.2c-0.1,0 -0.1,0 -0.2,0.1c-0.1,0.1 -0.1,0.3 -0.1,0.4c-0.2,0.1 0,0.2 0,0.3c0,0 0,0.1 0,0.2c0,0.1 0,0.3 0.1,0.4c0.1,0.2 0.3,0.4 0.4,0.5c0.2,0.1 0.4,0.6 0.6,0.6c0.2,0 0.4,-0.1 0.5,-0.1c0.2,0 0.4,0 0.6,-0.1c0.2,-0.1 0.1,-0.3 0.3,-0.5c0.1,-0.1 0.3,0 0.4,-0.1c0.2,-0.1 0.3,-0.3 0.4,-0.5c0,-0.1 0,-0.1 0,-0.2c0,-0.1 0.1,-0.2 0.1,-0.3c0,-0.1 -0.1,-0.1 -0.1,-0.2c0,-0.1 0,-0.2 0,-0.3c0,-0.2 0,-0.4 -0.1,-0.5c-0.4,-0.7 -1.2,-0.9 -2,-0.8c-0.2,0 -0.3,0.1 -0.4,0.2c-0.2,0.1 -0.1,0.2 -0.3,0.2c-0.1,0 -0.2,0.1 -0.2,0.2c0,0.2 0,0.2 0,0.3c0,0 0,0 0,0" fill="#FFFFFF"/>
      <path id="svg_33" d="m46.5,-56.3c0,0.1 0,0.1 0,0.2c-0.1,0.1 -0.1,0.1 -0.2,0.1c-0.1,0.1 -0.1,0.3 -0.1,0.4c-0.2,0.1 0,0.2 0,0.3c0,0 0,0.1 0,0.2c0,0.1 0,0.3 0.1,0.4c0.1,0.2 0.3,0.4 0.4,0.5c0.2,0.1 0.4,0.6 0.6,0.6c0.2,0 0.4,-0.1 0.5,-0.1c0.2,0 0.4,0 0.6,-0.1c0.2,-0.1 0.1,-0.3 0.3,-0.5c0.1,-0.1 0.3,0 0.4,-0.1c0.2,-0.1 0.3,-0.3 0.4,-0.5c0,-0.1 0,-0.1 0,-0.2c0,-0.1 0.1,-0.2 0.1,-0.3c0,-0.1 -0.1,-0.1 -0.1,-0.2c0,-0.1 0,-0.2 0,-0.3c0,-0.2 0,-0.4 -0.1,-0.5c-0.4,-0.7 -1.2,-0.9 -2,-0.8c-0.2,0 -0.3,0.1 -0.4,0.2c-0.2,0.1 -0.1,0.2 -0.3,0.2c-0.1,0 -0.2,0.1 -0.2,0.2c0,0.2 0,0.2 0,0.3c0,0 0,0 0,0" fill="#FFFFFF"/>
      <path id="svg_34" d="m38.8,-56.3c0,0.1 0,0.1 0,0.2c-0.1,0.1 -0.1,0.1 -0.2,0.1c-0.1,0.1 -0.1,0.3 -0.1,0.4c-0.2,0.1 0,0.2 0,0.3c0,0 0,0.1 0,0.2c0,0.1 0,0.3 0.1,0.4c0.1,0.2 0.3,0.4 0.4,0.5c0.2,0.1 0.4,0.6 0.6,0.6c0.2,0 0.4,-0.1 0.5,-0.1c0.2,0 0.4,0 0.6,-0.1c0.2,-0.1 0.1,-0.3 0.3,-0.5c0.1,-0.1 0.3,0 0.4,-0.1c0.2,-0.1 0.3,-0.3 0.4,-0.5c0,-0.1 0,-0.1 0,-0.2c0,-0.1 0.1,-0.2 0.1,-0.3c0,-0.1 -0.1,-0.1 -0.1,-0.2c0,-0.1 0,-0.2 0,-0.3c0,-0.2 0,-0.4 -0.1,-0.5c-0.4,-0.7 -1.2,-0.9 -2,-0.8c-0.2,0 -0.3,0.1 -0.4,0.2c-0.2,0.1 -0.1,0.2 -0.3,0.2c-0.1,0 -0.2,0.1 -0.2,0.2c0,0.2 0,0.2 0,0.3c0,0 0,0 0,0" fill="#FFFFFF"/>
      <path id="svg_35" d="m31.1,-56.3c0,0.1 0,0.1 0,0.2c-0.1,0.1 -0.1,0.1 -0.2,0.1c-0.1,0.1 -0.1,0.3 -0.1,0.4c-0.2,0.1 0,0.2 0,0.3c0,0 0,0.1 0,0.2c0,0.1 0,0.3 0.1,0.4c0.1,0.2 0.3,0.4 0.4,0.5c0.2,0.1 0.4,0.6 0.6,0.6c0.2,0 0.4,-0.1 0.5,-0.1c0.2,0 0.4,0 0.6,-0.1c0.2,-0.1 0.1,-0.3 0.3,-0.5c0.1,-0.1 0.3,0 0.4,-0.1c0.2,-0.1 0.3,-0.3 0.4,-0.5c0,-0.1 0,-0.1 0,-0.2c0,-0.1 0.1,-0.2 0.1,-0.3c0,-0.1 -0.1,-0.1 -0.1,-0.2c0,-0.1 0,-0.2 0,-0.3c0,-0.2 0,-0.4 -0.1,-0.5c-0.4,-0.7 -1.2,-0.9 -2,-0.8c-0.2,0 -0.3,0.1 -0.4,0.2c-0.2,0.1 -0.1,0.2 -0.3,0.2c-0.1,0 -0.2,0.1 -0.2,0.2c0,0.2 0,0.2 0,0.3c0,0 0,0 0,0" fill="#FFFFFF"/>
      <path id="svg_36" d="m23.5,-56.3c0,0.1 0,0.1 0,0.2c-0.1,0.1 -0.1,0.1 -0.2,0.1c-0.1,0.1 -0.1,0.3 -0.1,0.4c-0.2,0.1 0,0.2 0,0.3c0,0 0,0.1 0,0.2c0,0.1 0,0.3 0.1,0.4c0.1,0.2 0.3,0.4 0.4,0.5c0.2,0.1 0.4,0.6 0.6,0.6c0.2,0 0.4,-0.1 0.5,-0.1c0.2,0 0.4,0 0.6,-0.1c0.2,-0.1 0.1,-0.3 0.3,-0.5c0.1,-0.1 0.3,0 0.4,-0.1c0.2,-0.1 0.3,-0.3 0.4,-0.5c0,-0.1 0,-0.1 0,-0.2c0,-0.1 0.1,-0.2 0.1,-0.3c0,-0.1 -0.1,-0.1 -0.1,-0.2c0,-0.1 0,-0.2 0,-0.3c0,-0.2 0,-0.4 -0.1,-0.5c-0.4,-0.7 -1.2,-0.9 -2,-0.8c-0.2,0 -0.3,0.1 -0.4,0.2c-0.2,0.1 -0.1,0.2 -0.3,0.2c-0.1,0 -0.2,0.1 -0.2,0.2c0,0.2 0,0.2 0,0.3c0,0 0,0 0,0" fill="#FFFFFF"/>
      <path id="svg_37" d="m15.8,-56.3c0,0.1 0,0.1 0,0.2c-0.1,0.1 -0.1,0.1 -0.2,0.1c-0.1,0.1 -0.1,0.3 -0.1,0.4c-0.2,0.1 0,0.2 0,0.3c0,0 0,0.1 0,0.2c0,0.1 0,0.3 0.1,0.4c0.1,0.2 0.3,0.4 0.4,0.5c0.2,0.1 0.4,0.6 0.6,0.6c0.2,0 0.4,-0.1 0.5,-0.1c0.2,0 0.4,0 0.6,-0.1c0.2,-0.1 0.1,-0.3 0.3,-0.5c0.1,-0.1 0.3,0 0.4,-0.1c0.2,-0.1 0.3,-0.3 0.4,-0.5c0,-0.1 0,-0.1 0,-0.2c0,-0.1 0.1,-0.2 0.1,-0.3c0,-0.1 -0.1,-0.1 -0.1,-0.2c0,-0.1 0,-0.2 0,-0.3c0,-0.2 0,-0.4 -0.1,-0.5c-0.4,-0.7 -1.2,-0.9 -2,-0.8c-0.2,0 -0.3,0.1 -0.4,0.2c-0.2,0.1 -0.1,0.2 -0.3,0.2c-0.1,0 -0.2,0.1 -0.2,0.2c0,0.2 0,0.2 0,0.3c0,0 0,0 0,0" fill="#FFFFFF"/>
      <path id="svg_38" d="m8.2,-56.3c0,0.1 0,0.1 0,0.2c-0.1,0 -0.2,0 -0.2,0.1c-0.1,0.1 -0.1,0.3 -0.1,0.4c-0.2,0.1 0,0.2 0,0.3c0,0 0,0.1 0,0.2c0,0.1 0,0.3 0.1,0.4c0.1,0.2 0.3,0.4 0.4,0.5c0.2,0.1 0.4,0.6 0.6,0.6c0.2,0 0.4,-0.1 0.5,-0.1c0.2,0 0.4,0 0.6,-0.1c0.2,-0.1 0.1,-0.3 0.3,-0.5c0.1,-0.1 0.3,0 0.4,-0.1c0.2,-0.1 0.3,-0.3 0.4,-0.5c0,-0.1 0,-0.1 0,-0.2c0,-0.1 0.1,-0.2 0.1,-0.3c0,-0.1 -0.1,-0.1 -0.1,-0.2c0,-0.1 0,-0.2 0,-0.3c0,-0.2 0,-0.4 -0.1,-0.5c-0.4,-0.7 -1.2,-0.9 -2,-0.8c-0.2,0 -0.3,0.1 -0.4,0.2c-0.2,0.1 -0.1,0.2 -0.3,0.2c-0.1,0 -0.2,0.1 -0.2,0.2c0,0.2 0,0.2 0,0.3c-0.1,0 -0.1,0 0,0" fill="#FFFFFF"/>
      <path id="svg_39" d="m0.5,-56.3c0,0.1 0,0.1 0,0.2c-0.1,0.1 -0.1,0.1 -0.2,0.1c-0.1,0.1 -0.1,0.3 -0.1,0.4c-0.2,0.1 0,0.2 0,0.3c0,0 0,0.1 0,0.2c0,0.1 0,0.3 0.1,0.4c0.1,0.2 0.3,0.4 0.4,0.5c0.2,0.1 0.4,0.6 0.6,0.6c0.2,0 0.4,-0.1 0.5,-0.1c0.2,0 0.4,0 0.6,-0.1c0.2,-0.1 0.1,-0.3 0.3,-0.5c0.1,-0.1 0.3,0 0.4,-0.1c0.2,-0.1 0.3,-0.3 0.4,-0.5c0,-0.1 0,-0.1 0,-0.2c0,-0.1 0.1,-0.2 0.1,-0.3c0,-0.1 -0.1,-0.1 -0.1,-0.2c0,-0.1 0,-0.2 0,-0.3c0,-0.2 0,-0.4 -0.1,-0.5c-0.4,-0.7 -1.2,-0.9 -2,-0.8c-0.2,0 -0.3,0.1 -0.4,0.2c-0.2,0.1 -0.1,0.2 -0.3,0.2c-0.1,0 -0.2,0.1 -0.2,0.2c0,0.2 0,0.2 0,0.3c0,0 0,0 0,0" fill="#FFFFFF"/>
     </g>
     <g id="svg_40">
      <path id="svg_41" d="m69.4,-48.7c0,0.1 0,0.1 0,0.2c-0.1,0.1 -0.1,0.1 -0.2,0.1c-0.1,0.1 -0.1,0.3 -0.1,0.4c-0.2,0.1 0,0.2 0,0.3c0,0 0,0.1 0,0.2c0,0.1 0,0.3 0.1,0.4c0.1,0.2 0.3,0.4 0.4,0.5c0.2,0.1 0.4,0.6 0.6,0.6c0.2,0 0.4,-0.1 0.5,-0.1c0.2,0 0.4,0 0.6,-0.1c0.2,-0.1 0.1,-0.3 0.3,-0.5c0.1,-0.1 0.3,0 0.4,-0.1c0.2,-0.1 0.3,-0.3 0.4,-0.5c0,-0.1 0,-0.1 0,-0.2c0,-0.1 0.1,-0.2 0.1,-0.3c0,-0.1 -0.1,-0.1 -0.1,-0.2c0,-0.1 0,-0.2 0,-0.3c0,-0.2 0,-0.4 -0.1,-0.5c-0.4,-0.7 -1.2,-0.9 -2,-0.8c-0.2,0 -0.3,0.1 -0.4,0.2c-0.2,0.1 -0.1,0.2 -0.3,0.2c-0.1,0 -0.2,0.1 -0.2,0.2c0,0.3 0,0.2 0,0.3c0,0 0,0 0,0" fill="#FFFFFF"/>
      <path id="svg_42" d="m61.8,-48.7c0,0.1 0,0.1 0,0.2c-0.1,0.1 -0.1,0.1 -0.2,0.1c-0.1,0.1 -0.1,0.3 -0.1,0.4c-0.2,0.1 0,0.2 0,0.3c0,0 0,0.1 0,0.2c0,0.1 0,0.3 0.1,0.4c0.1,0.2 0.3,0.4 0.4,0.5c0.2,0.1 0.4,0.6 0.6,0.6c0.2,0 0.4,-0.1 0.5,-0.1c0.2,0 0.4,0 0.6,-0.1c0.2,-0.1 0.1,-0.3 0.3,-0.5c0.1,-0.1 0.3,0 0.4,-0.1c0.2,-0.1 0.3,-0.3 0.4,-0.5c0,-0.1 0,-0.1 0,-0.2c0,-0.1 0.1,-0.2 0.1,-0.3c0,-0.1 -0.1,-0.1 -0.1,-0.2c0,-0.1 0,-0.2 0,-0.3c0,-0.2 0,-0.4 -0.1,-0.5c-0.4,-0.7 -1.2,-0.9 -2,-0.8c-0.2,0 -0.3,0.1 -0.4,0.2c-0.2,0.1 -0.1,0.2 -0.3,0.2c-0.1,0 -0.2,0.1 -0.2,0.2c0,0.3 0,0.2 0,0.3c0,0 0,0 0,0" fill="#FFFFFF"/>
      <path id="svg_43" d="m54.1,-48.7c0,0.1 0,0.1 0,0.2c-0.1,0.1 -0.1,0.1 -0.2,0.1c-0.1,0.1 -0.1,0.3 -0.1,0.4c-0.2,0.1 0,0.2 0,0.3c0,0 0,0.1 0,0.2c0,0.1 0,0.3 0.1,0.4c0.1,0.2 0.3,0.4 0.4,0.5c0.2,0.1 0.4,0.6 0.6,0.6c0.2,0 0.4,-0.1 0.5,-0.1c0.2,0 0.4,0 0.6,-0.1c0.2,-0.1 0.1,-0.3 0.3,-0.5c0.1,-0.1 0.3,0 0.4,-0.1c0.2,-0.1 0.3,-0.3 0.4,-0.5c0,-0.1 0,-0.1 0,-0.2c0,-0.1 0.1,-0.2 0.1,-0.3c0,-0.1 -0.1,-0.1 -0.1,-0.2c0,-0.1 0,-0.2 0,-0.3c0,-0.2 0,-0.4 -0.1,-0.5c-0.4,-0.7 -1.2,-0.9 -2,-0.8c-0.2,0 -0.3,0.1 -0.4,0.2c-0.2,0.1 -0.1,0.2 -0.3,0.2c-0.1,0 -0.2,0.1 -0.2,0.2c0,0.3 0,0.2 0,0.3c0,0 0,0 0,0" fill="#FFFFFF"/>
      <path id="svg_44" d="m46.5,-48.7c0,0.1 0,0.1 0,0.2c-0.1,0.1 -0.1,0.1 -0.2,0.1c-0.1,0.1 -0.1,0.3 -0.1,0.4c-0.2,0.1 0,0.2 0,0.3c0,0 0,0.1 0,0.2c0,0.1 0,0.3 0.1,0.4c0.1,0.2 0.3,0.4 0.4,0.5c0.2,0.1 0.4,0.6 0.6,0.6c0.2,0 0.4,-0.1 0.5,-0.1c0.2,0 0.4,0 0.6,-0.1c0.2,-0.1 0.1,-0.3 0.3,-0.5c0.1,-0.1 0.3,0 0.4,-0.1c0.2,-0.1 0.3,-0.3 0.4,-0.5c0,-0.1 0,-0.1 0,-0.2c0,-0.1 0.1,-0.2 0.1,-0.3c0,-0.1 -0.1,-0.1 -0.1,-0.2c0,-0.1 0,-0.2 0,-0.3c0,-0.2 0,-0.4 -0.1,-0.5c-0.4,-0.7 -1.2,-0.9 -2,-0.8c-0.2,0 -0.3,0.1 -0.4,0.2c-0.2,0.1 -0.1,0.2 -0.3,0.2c-0.1,0 -0.2,0.1 -0.2,0.2c0,0.3 0,0.2 0,0.3c0,0 0,0 0,0" fill="#FFFFFF"/>
      <path id="svg_45" d="m38.8,-48.7c0,0.1 0,0.1 0,0.2c-0.1,0.1 -0.1,0.1 -0.2,0.1c-0.1,0.1 -0.1,0.3 -0.1,0.4c-0.2,0.1 0,0.2 0,0.3c0,0 0,0.1 0,0.2c0,0.1 0,0.3 0.1,0.4c0.1,0.2 0.3,0.4 0.4,0.5c0.2,0.1 0.4,0.6 0.6,0.6c0.2,0 0.4,-0.1 0.5,-0.1c0.2,0 0.4,0 0.6,-0.1c0.2,-0.1 0.1,-0.3 0.3,-0.5c0.1,-0.1 0.3,0 0.4,-0.1c0.2,-0.1 0.3,-0.3 0.4,-0.5c0,-0.1 0,-0.1 0,-0.2c0,-0.1 0.1,-0.2 0.1,-0.3c0,-0.1 -0.1,-0.1 -0.1,-0.2c0,-0.1 0,-0.2 0,-0.3c0,-0.2 0,-0.4 -0.1,-0.5c-0.4,-0.7 -1.2,-0.9 -2,-0.8c-0.2,0 -0.3,0.1 -0.4,0.2c-0.2,0.1 -0.1,0.2 -0.3,0.2c-0.1,0 -0.2,0.1 -0.2,0.2c0,0.3 0,0.2 0,0.3c0,0 0,0 0,0" fill="#FFFFFF"/>
      <path id="svg_46" d="m31.1,-48.7c0,0.1 0,0.1 0,0.2c-0.1,0.1 -0.1,0.1 -0.2,0.1c-0.1,0.1 -0.1,0.3 -0.1,0.4c-0.2,0.1 0,0.2 0,0.3c0,0 0,0.1 0,0.2c0,0.1 0,0.3 0.1,0.4c0.1,0.2 0.3,0.4 0.4,0.5c0.2,0.1 0.4,0.6 0.6,0.6c0.2,0 0.4,-0.1 0.5,-0.1c0.2,0 0.4,0 0.6,-0.1c0.2,-0.1 0.1,-0.3 0.3,-0.5c0.1,-0.1 0.3,0 0.4,-0.1c0.2,-0.1 0.3,-0.3 0.4,-0.5c0,-0.1 0,-0.1 0,-0.2c0,-0.1 0.1,-0.2 0.1,-0.3c0,-0.1 -0.1,-0.1 -0.1,-0.2c0,-0.1 0,-0.2 0,-0.3c0,-0.2 0,-0.4 -0.1,-0.5c-0.4,-0.7 -1.2,-0.9 -2,-0.8c-0.2,0 -0.3,0.1 -0.4,0.2c-0.2,0.1 -0.1,0.2 -0.3,0.2c-0.1,0 -0.2,0.1 -0.2,0.2c0,0.3 0,0.2 0,0.3c0,0 0,0 0,0" fill="#FFFFFF"/>
      <path id="svg_47" d="m23.5,-48.7c0,0.1 0,0.1 0,0.2c-0.1,0.1 -0.1,0.1 -0.2,0.1c-0.1,0.1 -0.1,0.3 -0.1,0.4c-0.2,0.1 0,0.2 0,0.3c0,0 0,0.1 0,0.2c0,0.1 0,0.3 0.1,0.4c0.1,0.2 0.3,0.4 0.4,0.5c0.2,0.1 0.4,0.6 0.6,0.6c0.2,0 0.4,-0.1 0.5,-0.1c0.2,0 0.4,0 0.6,-0.1c0.2,-0.1 0.1,-0.3 0.3,-0.5c0.1,-0.1 0.3,0 0.4,-0.1c0.2,-0.1 0.3,-0.3 0.4,-0.5c0,-0.1 0,-0.1 0,-0.2c0,-0.1 0.1,-0.2 0.1,-0.3c0,-0.1 -0.1,-0.1 -0.1,-0.2c0,-0.1 0,-0.2 0,-0.3c0,-0.2 0,-0.4 -0.1,-0.5c-0.4,-0.7 -1.2,-0.9 -2,-0.8c-0.2,0 -0.3,0.1 -0.4,0.2c-0.2,0.1 -0.1,0.2 -0.3,0.2c-0.1,0 -0.2,0.1 -0.2,0.2c0,0.3 0,0.2 0,0.3c0,0 0,0 0,0" fill="#FFFFFF"/>
      <path id="svg_48" d="m15.8,-48.7c0,0.1 0,0.1 0,0.2c-0.1,0.1 -0.1,0.1 -0.2,0.1c-0.1,0.1 -0.1,0.3 -0.1,0.4c-0.2,0.1 0,0.2 0,0.3c0,0 0,0.1 0,0.2c0,0.1 0,0.3 0.1,0.4c0.1,0.2 0.3,0.4 0.4,0.5c0.2,0.1 0.4,0.6 0.6,0.6c0.2,0 0.4,-0.1 0.5,-0.1c0.2,0 0.4,0 0.6,-0.1c0.2,-0.1 0.1,-0.3 0.3,-0.5c0.1,-0.1 0.3,0 0.4,-0.1c0.2,-0.1 0.3,-0.3 0.4,-0.5c0,-0.1 0,-0.1 0,-0.2c0,-0.1 0.1,-0.2 0.1,-0.3c0,-0.1 -0.1,-0.1 -0.1,-0.2c0,-0.1 0,-0.2 0,-0.3c0,-0.2 0,-0.4 -0.1,-0.5c-0.4,-0.7 -1.2,-0.9 -2,-0.8c-0.2,0 -0.3,0.1 -0.4,0.2c-0.2,0.1 -0.1,0.2 -0.3,0.2c-0.1,0 -0.2,0.1 -0.2,0.2c0,0.3 0,0.2 0,0.3c0,0 0,0 0,0" fill="#FFFFFF"/>
      <path id="svg_49" d="m8.2,-48.7c0,0.1 0,0.1 0,0.2c-0.1,0.1 -0.2,0.1 -0.2,0.1c-0.1,0.1 -0.1,0.3 -0.1,0.4c-0.2,0.1 0,0.2 0,0.3c0,0 0,0.1 0,0.2c0,0.1 0,0.3 0.1,0.4c0.1,0.2 0.3,0.4 0.4,0.5c0.1,0.2 0.3,0.6 0.5,0.6c0.2,0 0.4,-0.1 0.5,-0.1c0.2,0 0.4,0 0.6,-0.1c0.2,-0.1 0.1,-0.3 0.3,-0.5c0.1,-0.1 0.3,0 0.4,-0.1c0.2,-0.1 0.3,-0.3 0.4,-0.5c0,-0.1 0,-0.1 0,-0.2c0,-0.1 0.1,-0.2 0.1,-0.3c0,-0.1 -0.1,-0.1 -0.1,-0.2c0,-0.1 0,-0.2 0,-0.3c0,-0.2 0,-0.4 -0.1,-0.5c-0.4,-0.7 -1.2,-0.9 -2,-0.8c-0.2,0 -0.3,0.1 -0.4,0.2c-0.2,0.1 -0.1,0.2 -0.3,0.2c-0.1,0 -0.2,0.1 -0.2,0.2c0.1,0.3 0.1,0.2 0.1,0.3c-0.1,0 -0.1,0 0,0" fill="#FFFFFF"/>
      <path id="svg_50" d="m0.5,-48.7c0,0.1 0,0.1 0,0.2c-0.1,0.1 -0.1,0.1 -0.2,0.1c-0.1,0.1 -0.1,0.3 -0.1,0.4c-0.2,0.1 0,0.2 0,0.3c0,0 0,0.1 0,0.2c0,0.1 0,0.3 0.1,0.4c0.1,0.2 0.3,0.4 0.4,0.5c0.2,0.2 0.3,0.6 0.6,0.6c0.2,0 0.4,-0.1 0.5,-0.1c0.2,0 0.4,0 0.6,-0.1c0.2,-0.1 0.1,-0.3 0.3,-0.5c0.1,-0.1 0.3,0 0.4,-0.1c0.2,-0.1 0.3,-0.3 0.4,-0.5c0,-0.1 0,-0.1 0,-0.2c0,-0.1 0.1,-0.2 0.1,-0.3c0,-0.1 -0.1,-0.1 -0.1,-0.2c0,-0.1 0,-0.2 0,-0.3c0,-0.2 0,-0.4 -0.1,-0.5c-0.4,-0.7 -1.2,-0.9 -2,-0.8c-0.2,0 -0.3,0.1 -0.4,0.2c-0.2,0.1 -0.1,0.2 -0.3,0.2c-0.1,0 -0.2,0.1 -0.2,0.2c0,0.3 0,0.2 0,0.3c0,0 0,0 0,0" fill="#FFFFFF"/>
     </g>
     <g id="svg_51">
      <path id="svg_52" d="m69.4,-41c0,0.1 0,0.1 0,0.2c-0.1,0.1 -0.1,0.1 -0.2,0.1c-0.1,0.1 -0.1,0.3 -0.1,0.4c-0.2,0.1 0,0.2 0,0.3c0,0 0,0.1 0,0.2c0,0.1 0,0.3 0.1,0.4c0.1,0.2 0.3,0.4 0.4,0.5c0.2,0.1 0.4,0.6 0.6,0.6c0.2,0 0.4,-0.1 0.5,-0.1c0.2,0 0.4,0 0.6,-0.1c0.2,-0.1 0.1,-0.3 0.3,-0.5c0.1,-0.1 0.3,0 0.4,-0.1c0.2,-0.1 0.3,-0.3 0.4,-0.5c0,-0.1 0,-0.1 0,-0.2c0,-0.1 0.1,-0.2 0.1,-0.3c0,-0.1 -0.1,-0.1 -0.1,-0.2c0,-0.1 0,-0.2 0,-0.3c0,-0.2 0,-0.4 -0.1,-0.5c-0.4,-0.7 -1.2,-0.9 -2,-0.8c-0.2,0 -0.3,0.1 -0.4,0.2c-0.2,0.1 -0.1,0.2 -0.3,0.2c-0.1,0 -0.2,0.1 -0.2,0.2c0,0.2 0,0.2 0,0.3c0,0 0,0 0,0" fill="#FFFFFF"/>
      <path id="svg_53" d="m61.8,-41c0,0.1 0,0.1 0,0.2c-0.1,0.1 -0.1,0.1 -0.2,0.1c-0.1,0.1 -0.1,0.3 -0.1,0.4c-0.2,0.1 0,0.2 0,0.3c0,0 0,0.1 0,0.2c0,0.1 0,0.3 0.1,0.4c0.1,0.2 0.3,0.4 0.4,0.5c0.2,0.1 0.4,0.6 0.6,0.6c0.2,0 0.4,-0.1 0.5,-0.1c0.2,0 0.4,0 0.6,-0.1c0.2,-0.1 0.1,-0.3 0.3,-0.5c0.1,-0.1 0.3,0 0.4,-0.1c0.2,-0.1 0.3,-0.3 0.4,-0.5c0,-0.1 0,-0.1 0,-0.2c0,-0.1 0.1,-0.2 0.1,-0.3c0,-0.1 -0.1,-0.1 -0.1,-0.2c0,-0.1 0,-0.2 0,-0.3c0,-0.2 0,-0.4 -0.1,-0.5c-0.4,-0.7 -1.2,-0.9 -2,-0.8c-0.2,0 -0.3,0.1 -0.4,0.2c-0.2,0.1 -0.1,0.2 -0.3,0.2c-0.1,0 -0.2,0.1 -0.2,0.2c0,0.2 0,0.2 0,0.3c0,0 0,0 0,0" fill="#FFFFFF"/>
      <path id="svg_54" d="m54.1,-41c0,0.1 0,0.1 0,0.2c-0.1,0.1 -0.1,0.1 -0.2,0.1c-0.1,0.1 -0.1,0.3 -0.1,0.4c-0.2,0.1 0,0.2 0,0.3c0,0 0,0.1 0,0.2c0,0.1 0,0.3 0.1,0.4c0.1,0.2 0.3,0.4 0.4,0.5c0.2,0.1 0.4,0.6 0.6,0.6c0.2,0 0.4,-0.1 0.5,-0.1c0.2,0 0.4,0 0.6,-0.1c0.2,-0.1 0.1,-0.3 0.3,-0.5c0.1,-0.1 0.3,0 0.4,-0.1c0.2,-0.1 0.3,-0.3 0.4,-0.5c0,-0.1 0,-0.1 0,-0.2c0,-0.1 0.1,-0.2 0.1,-0.3c0,-0.1 -0.1,-0.1 -0.1,-0.2c0,-0.1 0,-0.2 0,-0.3c0,-0.2 0,-0.4 -0.1,-0.5c-0.4,-0.7 -1.2,-0.9 -2,-0.8c-0.2,0 -0.3,0.1 -0.4,0.2c-0.2,0.1 -0.1,0.2 -0.3,0.2c-0.1,0 -0.2,0.1 -0.2,0.2c0,0.2 0,0.2 0,0.3c0,0 0,0 0,0" fill="#FFFFFF"/>
      <path id="svg_55" d="m46.5,-41c0,0.1 0,0.1 0,0.2c-0.1,0.1 -0.1,0.1 -0.2,0.1c-0.1,0.1 -0.1,0.3 -0.1,0.4c-0.2,0.1 0,0.2 0,0.3c0,0 0,0.1 0,0.2c0,0.1 0,0.3 0.1,0.4c0.1,0.2 0.3,0.4 0.4,0.5c0.2,0.1 0.4,0.6 0.6,0.6c0.2,0 0.4,-0.1 0.5,-0.1c0.2,0 0.4,0 0.6,-0.1c0.2,-0.1 0.1,-0.3 0.3,-0.5c0.1,-0.1 0.3,0 0.4,-0.1c0.2,-0.1 0.3,-0.3 0.4,-0.5c0,-0.1 0,-0.1 0,-0.2c0,-0.1 0.1,-0.2 0.1,-0.3c0,-0.1 -0.1,-0.1 -0.1,-0.2c0,-0.1 0,-0.2 0,-0.3c0,-0.2 0,-0.4 -0.1,-0.5c-0.4,-0.7 -1.2,-0.9 -2,-0.8c-0.2,0 -0.3,0.1 -0.4,0.2c-0.2,0.1 -0.1,0.2 -0.3,0.2c-0.1,0 -0.2,0.1 -0.2,0.2c0,0.2 0,0.2 0,0.3c0,0 0,0 0,0" fill="#FFFFFF"/>
      <path id="svg_56" d="m38.8,-41c0,0.1 0,0.1 0,0.2c-0.1,0.1 -0.1,0.1 -0.2,0.1c-0.1,0.1 -0.1,0.3 -0.1,0.4c-0.2,0.1 0,0.2 0,0.3c0,0 0,0.1 0,0.2c0,0.1 0,0.3 0.1,0.4c0.1,0.2 0.3,0.4 0.4,0.5c0.2,0.1 0.4,0.6 0.6,0.6c0.2,0 0.4,-0.1 0.5,-0.1c0.2,0 0.4,0 0.6,-0.1c0.2,-0.1 0.1,-0.3 0.3,-0.5c0.1,-0.1 0.3,0 0.4,-0.1c0.2,-0.1 0.3,-0.3 0.4,-0.5c0,-0.1 0,-0.1 0,-0.2c0,-0.1 0.1,-0.2 0.1,-0.3c0,-0.1 -0.1,-0.1 -0.1,-0.2c0,-0.1 0,-0.2 0,-0.3c0,-0.2 0,-0.4 -0.1,-0.5c-0.4,-0.7 -1.2,-0.9 -2,-0.8c-0.2,0 -0.3,0.1 -0.4,0.2c-0.2,0.1 -0.1,0.2 -0.3,0.2c-0.1,0 -0.2,0.1 -0.2,0.2c0,0.2 0,0.2 0,0.3c0,0 0,0 0,0" fill="#FFFFFF"/>
      <path id="svg_57" d="m31.1,-41c0,0.1 0,0.1 0,0.2c-0.1,0.1 -0.1,0.1 -0.2,0.1c-0.1,0.1 -0.1,0.3 -0.1,0.4c-0.2,0.1 0,0.2 0,0.3c0,0 0,0.1 0,0.2c0,0.1 0,0.3 0.1,0.4c0.1,0.2 0.3,0.4 0.4,0.5c0.2,0.1 0.4,0.6 0.6,0.6c0.2,0 0.4,-0.1 0.5,-0.1c0.2,0 0.4,0 0.6,-0.1c0.2,-0.1 0.1,-0.3 0.3,-0.5c0.1,-0.1 0.3,0 0.4,-0.1c0.2,-0.1 0.3,-0.3 0.4,-0.5c0,-0.1 0,-0.1 0,-0.2c0,-0.1 0.1,-0.2 0.1,-0.3c0,-0.1 -0.1,-0.1 -0.1,-0.2c0,-0.1 0,-0.2 0,-0.3c0,-0.2 0,-0.4 -0.1,-0.5c-0.4,-0.7 -1.2,-0.9 -2,-0.8c-0.2,0 -0.3,0.1 -0.4,0.2c-0.2,0.1 -0.1,0.2 -0.3,0.2c-0.1,0 -0.2,0.1 -0.2,0.2c0,0.2 0,0.2 0,0.3c0,0 0,0 0,0" fill="#FFFFFF"/>
      <path id="svg_58" d="m23.5,-41c0,0.1 0,0.1 0,0.2c-0.1,0.1 -0.1,0.1 -0.2,0.1c-0.1,0.1 -0.1,0.3 -0.1,0.4c-0.2,0.1 0,0.2 0,0.3c0,0 0,0.1 0,0.2c0,0.1 0,0.3 0.1,0.4c0.1,0.2 0.3,0.4 0.4,0.5c0.2,0.1 0.4,0.6 0.6,0.6c0.2,0 0.4,-0.1 0.5,-0.1c0.2,0 0.4,0 0.6,-0.1c0.2,-0.1 0.1,-0.3 0.3,-0.5c0.1,-0.1 0.3,0 0.4,-0.1c0.2,-0.1 0.3,-0.3 0.4,-0.5c0,-0.1 0,-0.1 0,-0.2c0,-0.1 0.1,-0.2 0.1,-0.3c0,-0.1 -0.1,-0.1 -0.1,-0.2c0,-0.1 0,-0.2 0,-0.3c0,-0.2 0,-0.4 -0.1,-0.5c-0.4,-0.7 -1.2,-0.9 -2,-0.8c-0.2,0 -0.3,0.1 -0.4,0.2c-0.2,0.1 -0.1,0.2 -0.3,0.2c-0.1,0 -0.2,0.1 -0.2,0.2c0,0.2 0,0.2 0,0.3c0,0 0,0 0,0" fill="#FFFFFF"/>
      <path id="svg_59" d="m15.8,-41c0,0.1 0,0.1 0,0.2c-0.1,0.1 -0.1,0.1 -0.2,0.1c-0.1,0.1 -0.1,0.3 -0.1,0.4c-0.2,0.1 0,0.2 0,0.3c0,0 0,0.1 0,0.2c0,0.1 0,0.3 0.1,0.4c0.1,0.2 0.3,0.4 0.4,0.5c0.2,0.1 0.4,0.6 0.6,0.6c0.2,0 0.4,-0.1 0.5,-0.1c0.2,0 0.4,0 0.6,-0.1c0.2,-0.1 0.1,-0.3 0.3,-0.5c0.1,-0.1 0.3,0 0.4,-0.1c0.2,-0.1 0.3,-0.3 0.4,-0.5c0,-0.1 0,-0.1 0,-0.2c0,-0.1 0.1,-0.2 0.1,-0.3c0,-0.1 -0.1,-0.1 -0.1,-0.2c0,-0.1 0,-0.2 0,-0.3c0,-0.2 0,-0.4 -0.1,-0.5c-0.4,-0.7 -1.2,-0.9 -2,-0.8c-0.2,0 -0.3,0.1 -0.4,0.2c-0.2,0.1 -0.1,0.2 -0.3,0.2c-0.1,0 -0.2,0.1 -0.2,0.2c0,0.2 0,0.2 0,0.3c0,0 0,0 0,0" fill="#FFFFFF"/>
      <path id="svg_60" d="m8.2,-41c0,0.1 0,0.1 0,0.2c-0.1,0 -0.2,0 -0.2,0.1c-0.1,0.1 -0.1,0.3 -0.1,0.4c-0.2,0.1 0,0.2 0,0.3c0,0 0,0.1 0,0.2c0,0.1 0,0.3 0.1,0.4c0.1,0.2 0.3,0.4 0.4,0.5c0.2,0.1 0.4,0.6 0.6,0.6c0.2,0 0.4,-0.1 0.5,-0.1c0.2,0 0.4,0 0.6,-0.1c0.2,-0.1 0.1,-0.3 0.3,-0.5c0.1,-0.1 0.3,0 0.4,-0.1c0.2,-0.1 0.3,-0.3 0.4,-0.5c0,-0.1 0,-0.1 0,-0.2c0,-0.1 0.1,-0.2 0.1,-0.3c0,-0.1 -0.1,-0.1 -0.1,-0.2c0,-0.1 0,-0.2 0,-0.3c0,-0.2 0,-0.4 -0.1,-0.5c-0.4,-0.7 -1.2,-0.9 -2,-0.8c-0.2,0 -0.3,0.1 -0.4,0.2c-0.2,0.1 -0.1,0.2 -0.3,0.2c-0.1,0 -0.2,0.1 -0.2,0.2c0,0.2 0,0.2 0,0.3c-0.1,0 -0.1,0 0,0" fill="#FFFFFF"/>
      <path id="svg_61" d="m0.5,-41c0,0.1 0,0.1 0,0.2c-0.1,0.1 -0.1,0.1 -0.2,0.1c-0.1,0.1 -0.1,0.3 -0.1,0.4c-0.2,0.1 0,0.2 0,0.3c0,0 0,0.1 0,0.2c0,0.1 0,0.3 0.1,0.4c0.1,0.2 0.3,0.4 0.4,0.5c0.2,0.1 0.4,0.6 0.6,0.6c0.2,0 0.4,-0.1 0.5,-0.1c0.2,0 0.4,0 0.6,-0.1c0.2,-0.1 0.1,-0.3 0.3,-0.5c0.1,0 0.3,0 0.4,0c0.2,-0.1 0.3,-0.3 0.4,-0.5c0,-0.1 0,-0.1 0,-0.2c0,-0.1 0.1,-0.2 0.1,-0.3c0,-0.1 -0.1,-0.1 -0.1,-0.2c0,-0.1 0,-0.2 0,-0.3c0,-0.2 0,-0.4 -0.1,-0.5c-0.4,-0.7 -1.2,-0.9 -2,-0.8c-0.2,0 -0.3,0.1 -0.4,0.2c-0.2,0.1 -0.1,0.2 -0.3,0.2c-0.1,0 -0.2,0.1 -0.2,0.2c0,0.1 0,0.1 0,0.2c0,0 0,0 0,0" fill="#FFFFFF"/>
     </g>
     <g id="svg_62">
      <path id="svg_63" d="m69.4,-33.4c0,0.1 0,0.1 0,0.2c-0.1,0.1 -0.1,0.1 -0.2,0.1c-0.1,0.1 -0.1,0.3 -0.1,0.4c-0.2,0.1 0,0.2 0,0.3c0,0 0,0.1 0,0.2c0,0.1 0,0.3 0.1,0.4c0.1,0.2 0.3,0.4 0.4,0.5c0.2,0.1 0.4,0.6 0.6,0.6c0.2,0 0.4,-0.1 0.5,-0.1c0.2,0 0.4,0 0.6,-0.1c0.2,-0.1 0.1,-0.3 0.3,-0.5c0.1,-0.1 0.3,0 0.4,-0.1c0.2,-0.1 0.3,-0.3 0.4,-0.5c0,-0.1 0,-0.1 0,-0.2c0,-0.1 0.1,-0.2 0.1,-0.3c0,-0.1 -0.1,-0.1 -0.1,-0.2c0,-0.1 0,-0.2 0,-0.3c0,-0.2 0,-0.4 -0.1,-0.5c-0.4,-0.7 -1.2,-0.9 -2,-0.8c-0.2,0 -0.3,0.1 -0.4,0.2c-0.2,0.1 -0.1,0.2 -0.3,0.2c-0.1,0 -0.2,0.1 -0.2,0.2c0,0.3 0,0.2 0,0.3c0,0 0,0 0,0" fill="#FFFFFF"/>
      <path id="svg_64" d="m61.8,-33.4c0,0.1 0,0.1 0,0.2c-0.1,0.1 -0.1,0.1 -0.2,0.1c-0.1,0.1 -0.1,0.3 -0.1,0.4c-0.2,0.1 0,0.2 0,0.3c0,0 0,0.1 0,0.2c0,0.1 0,0.3 0.1,0.4c0.1,0.2 0.3,0.4 0.4,0.5c0.2,0.1 0.4,0.6 0.6,0.6c0.2,0 0.4,-0.1 0.5,-0.1c0.2,0 0.4,0 0.6,-0.1c0.2,-0.1 0.1,-0.3 0.3,-0.5c0.1,-0.1 0.3,0 0.4,-0.1c0.2,-0.1 0.3,-0.3 0.4,-0.5c0,-0.1 0,-0.1 0,-0.2c0,-0.1 0.1,-0.2 0.1,-0.3c0,-0.1 -0.1,-0.1 -0.1,-0.2c0,-0.1 0,-0.2 0,-0.3c0,-0.2 0,-0.4 -0.1,-0.5c-0.4,-0.7 -1.2,-0.9 -2,-0.8c-0.2,0 -0.3,0.1 -0.4,0.2c-0.2,0.1 -0.1,0.2 -0.3,0.2c-0.1,0 -0.2,0.1 -0.2,0.2c0,0.3 0,0.2 0,0.3c0,0 0,0 0,0" fill="#FFFFFF"/>
      <path id="svg_65" d="m54.1,-33.4c0,0.1 0,0.1 0,0.2c-0.1,0.1 -0.1,0.1 -0.2,0.1c-0.1,0.1 -0.1,0.3 -0.1,0.4c-0.2,0.1 0,0.2 0,0.3c0,0 0,0.1 0,0.2c0,0.1 0,0.3 0.1,0.4c0.1,0.2 0.3,0.4 0.4,0.5c0.2,0.1 0.4,0.6 0.6,0.6c0.2,0 0.4,-0.1 0.5,-0.1c0.2,0 0.4,0 0.6,-0.1c0.2,-0.1 0.1,-0.3 0.3,-0.5c0.1,-0.1 0.3,0 0.4,-0.1c0.2,-0.1 0.3,-0.3 0.4,-0.5c0,-0.1 0,-0.1 0,-0.2c0,-0.1 0.1,-0.2 0.1,-0.3c0,-0.1 -0.1,-0.1 -0.1,-0.2c0,-0.1 0,-0.2 0,-0.3c0,-0.2 0,-0.4 -0.1,-0.5c-0.4,-0.7 -1.2,-0.9 -2,-0.8c-0.2,0 -0.3,0.1 -0.4,0.2c-0.2,0.1 -0.1,0.2 -0.3,0.2c-0.1,0 -0.2,0.1 -0.2,0.2c0,0.3 0,0.2 0,0.3c0,0 0,0 0,0" fill="#FFFFFF"/>
      <path id="svg_66" d="m46.5,-33.4c0,0.1 0,0.1 0,0.2c-0.1,0.1 -0.1,0.1 -0.2,0.1c-0.1,0.1 -0.1,0.3 -0.1,0.4c-0.2,0.1 0,0.2 0,0.3c0,0 0,0.1 0,0.2c0,0.1 0,0.3 0.1,0.4c0.1,0.2 0.3,0.4 0.4,0.5c0.2,0.1 0.4,0.6 0.6,0.6c0.2,0 0.4,-0.1 0.5,-0.1c0.2,0 0.4,0 0.6,-0.1c0.2,-0.1 0.1,-0.3 0.3,-0.5c0.1,-0.1 0.3,0 0.4,-0.1c0.2,-0.1 0.3,-0.3 0.4,-0.5c0,-0.1 0,-0.1 0,-0.2c0,-0.1 0.1,-0.2 0.1,-0.3c0,-0.1 -0.1,-0.1 -0.1,-0.2c0,-0.1 0,-0.2 0,-0.3c0,-0.2 0,-0.4 -0.1,-0.5c-0.4,-0.7 -1.2,-0.9 -2,-0.8c-0.2,0 -0.3,0.1 -0.4,0.2c-0.2,0.1 -0.1,0.2 -0.3,0.2c-0.1,0 -0.2,0.1 -0.2,0.2c0,0.3 0,0.2 0,0.3c0,0 0,0 0,0" fill="#FFFFFF"/>
      <path id="svg_67" d="m38.8,-33.4c0,0.1 0,0.1 0,0.2c-0.1,0.1 -0.1,0.1 -0.2,0.1c-0.1,0.1 -0.1,0.3 -0.1,0.4c-0.2,0.1 0,0.2 0,0.3c0,0 0,0.1 0,0.2c0,0.1 0,0.3 0.1,0.4c0.1,0.2 0.3,0.4 0.4,0.5c0.2,0.1 0.4,0.6 0.6,0.6c0.2,0 0.4,-0.1 0.5,-0.1c0.2,0 0.4,0 0.6,-0.1c0.2,-0.1 0.1,-0.3 0.3,-0.5c0.1,-0.1 0.3,0 0.4,-0.1c0.2,-0.1 0.3,-0.3 0.4,-0.5c0,-0.1 0,-0.1 0,-0.2c0,-0.1 0.1,-0.2 0.1,-0.3c0,-0.1 -0.1,-0.1 -0.1,-0.2c0,-0.1 0,-0.2 0,-0.3c0,-0.2 0,-0.4 -0.1,-0.5c-0.4,-0.7 -1.2,-0.9 -2,-0.8c-0.2,0 -0.3,0.1 -0.4,0.2c-0.2,0.1 -0.1,0.2 -0.3,0.2c-0.1,0 -0.2,0.1 -0.2,0.2c0,0.3 0,0.2 0,0.3c0,0 0,0 0,0" fill="#FFFFFF"/>
      <path id="svg_68" d="m31.1,-33.4c0,0.1 0,0.1 0,0.2c-0.1,0.1 -0.1,0.1 -0.2,0.1c-0.1,0.1 -0.1,0.3 -0.1,0.4c-0.2,0.1 0,0.2 0,0.3c0,0 0,0.1 0,0.2c0,0.1 0,0.3 0.1,0.4c0.1,0.2 0.3,0.4 0.4,0.5c0.2,0.1 0.4,0.6 0.6,0.6c0.2,0 0.4,-0.1 0.5,-0.1c0.2,0 0.4,0 0.6,-0.1c0.2,-0.1 0.1,-0.3 0.3,-0.5c0.1,-0.1 0.3,0 0.4,-0.1c0.2,-0.1 0.3,-0.3 0.4,-0.5c0,-0.1 0,-0.1 0,-0.2c0,-0.1 0.1,-0.2 0.1,-0.3c0,-0.1 -0.1,-0.1 -0.1,-0.2c0,-0.1 0,-0.2 0,-0.3c0,-0.2 0,-0.4 -0.1,-0.5c-0.4,-0.7 -1.2,-0.9 -2,-0.8c-0.2,0 -0.3,0.1 -0.4,0.2c-0.2,0.1 -0.1,0.2 -0.3,0.2c-0.1,0 -0.2,0.1 -0.2,0.2c0,0.3 0,0.2 0,0.3c0,0 0,0 0,0" fill="#FFFFFF"/>
      <path id="svg_69" d="m23.5,-33.4c0,0.1 0,0.1 0,0.2c-0.1,0.1 -0.1,0.1 -0.2,0.1c-0.1,0.1 -0.1,0.3 -0.1,0.4c-0.2,0.1 0,0.2 0,0.3c0,0 0,0.1 0,0.2c0,0.1 0,0.3 0.1,0.4c0.1,0.2 0.3,0.4 0.4,0.5c0.2,0.1 0.4,0.6 0.6,0.6c0.2,0 0.4,-0.1 0.5,-0.1c0.2,0 0.4,0 0.6,-0.1c0.2,-0.1 0.1,-0.3 0.3,-0.5c0.1,-0.1 0.3,0 0.4,-0.1c0.2,-0.1 0.3,-0.3 0.4,-0.5c0,-0.1 0,-0.1 0,-0.2c0,-0.1 0.1,-0.2 0.1,-0.3c0,-0.1 -0.1,-0.1 -0.1,-0.2c0,-0.1 0,-0.2 0,-0.3c0,-0.2 0,-0.4 -0.1,-0.5c-0.4,-0.7 -1.2,-0.9 -2,-0.8c-0.2,0 -0.3,0.1 -0.4,0.2c-0.2,0.1 -0.1,0.2 -0.3,0.2c-0.1,0 -0.2,0.1 -0.2,0.2c0,0.3 0,0.2 0,0.3c0,0 0,0 0,0" fill="#FFFFFF"/>
      <path id="svg_70" d="m15.8,-33.4c0,0.1 0,0.1 0,0.2c-0.1,0.1 -0.1,0.1 -0.2,0.1c-0.1,0.1 -0.1,0.3 -0.1,0.4c-0.2,0.1 0,0.2 0,0.3c0,0 0,0.1 0,0.2c0,0.1 0,0.3 0.1,0.4c0.1,0.2 0.3,0.4 0.4,0.5c0.2,0.1 0.4,0.6 0.6,0.6c0.2,0 0.4,-0.1 0.5,-0.1c0.2,0 0.4,0 0.6,-0.1c0.2,-0.1 0.1,-0.3 0.3,-0.5c0.1,-0.1 0.3,0 0.4,-0.1c0.2,-0.1 0.3,-0.3 0.4,-0.5c0,-0.1 0,-0.1 0,-0.2c0,-0.1 0.1,-0.2 0.1,-0.3c0,-0.1 -0.1,-0.1 -0.1,-0.2c0,-0.1 0,-0.2 0,-0.3c0,-0.2 0,-0.4 -0.1,-0.5c-0.4,-0.7 -1.2,-0.9 -2,-0.8c-0.2,0 -0.3,0.1 -0.4,0.2c-0.2,0.1 -0.1,0.2 -0.3,0.2c-0.1,0 -0.2,0.1 -0.2,0.2c0,0.3 0,0.2 0,0.3c0,0 0,0 0,0" fill="#FFFFFF"/>
      <path id="svg_71" d="m8.2,-33.4c0,0.1 0,0.1 0,0.2c-0.1,0.1 -0.2,0.1 -0.2,0.1c-0.1,0.1 -0.1,0.3 -0.1,0.4c-0.2,0.1 0,0.2 0,0.3c0,0 0,0.1 0,0.2c0,0.1 0,0.3 0.1,0.4c0.1,0.2 0.3,0.4 0.4,0.5c0.2,0.1 0.4,0.6 0.6,0.6c0.2,0 0.4,-0.1 0.5,-0.1c0.2,0 0.4,0 0.6,-0.1c0.2,-0.1 0.1,-0.3 0.3,-0.5c0.1,-0.1 0.3,0 0.4,-0.1c0.2,-0.1 0.3,-0.3 0.4,-0.5c0,-0.1 0,-0.1 0,-0.2c0,-0.1 0.1,-0.2 0.1,-0.3c0,-0.1 -0.1,-0.1 -0.1,-0.2c0,-0.1 0,-0.2 0,-0.3c0,-0.2 0,-0.4 -0.1,-0.5c-0.4,-0.7 -1.2,-0.9 -2,-0.8c-0.2,0 -0.3,0.1 -0.4,0.2c-0.2,0.1 -0.1,0.2 -0.3,0.2c-0.1,0 -0.2,0.1 -0.2,0.2c0,0.3 0,0.2 0,0.3c-0.1,0 -0.1,0 0,0" fill="#FFFFFF"/>
      <path id="svg_72" d="m0.5,-33.4c0,0.1 0,0.1 0,0.2c-0.1,0.1 -0.1,0.1 -0.2,0.1c-0.1,0.1 -0.1,0.3 -0.1,0.4c-0.2,0.1 0,0.2 0,0.3c0,0 0,0.1 0,0.2c0,0.1 0,0.3 0.1,0.4c0.1,0.2 0.3,0.4 0.4,0.5c0.2,0.1 0.4,0.6 0.6,0.6c0.2,0 0.4,-0.1 0.5,-0.1c0.2,0 0.4,0 0.6,-0.1c0.2,-0.1 0.1,-0.3 0.3,-0.5c0.1,-0.1 0.3,0 0.4,-0.1c0.2,-0.1 0.3,-0.3 0.4,-0.5c0,-0.1 0,-0.1 0,-0.2c0,-0.1 0.1,-0.2 0.1,-0.3c0,-0.1 -0.1,-0.1 -0.1,-0.2c0,-0.1 0,-0.2 0,-0.3c0,-0.2 0,-0.4 -0.1,-0.5c-0.4,-0.7 -1.2,-0.9 -2,-0.8c-0.2,0 -0.3,0.1 -0.4,0.2c-0.2,0.1 -0.1,0.2 -0.3,0.2c-0.1,0 -0.2,0.1 -0.2,0.2c0,0.3 0,0.2 0,0.3c0,0 0,0 0,0" fill="#FFFFFF"/>
     </g>
     <g id="svg_73">
      <path id="svg_74" d="m69.4,-25.7c0,0.1 0,0.1 0,0.2c-0.1,0.1 -0.1,0.1 -0.2,0.1c-0.1,0.1 -0.1,0.3 -0.1,0.4c-0.2,0.1 0,0.2 0,0.3c0,0 0,0.1 0,0.2c0,0.1 0,0.3 0.1,0.4c0.1,0.2 0.3,0.4 0.4,0.5c0.2,0.1 0.4,0.6 0.6,0.6c0.2,0 0.4,-0.1 0.5,-0.1c0.2,0 0.4,0 0.6,-0.1c0.2,-0.1 0.1,-0.3 0.3,-0.5c0.1,-0.1 0.3,0 0.4,-0.1c0.2,-0.1 0.3,-0.3 0.4,-0.5c0,-0.1 0,-0.1 0,-0.2c0,-0.1 0.1,-0.2 0.1,-0.3c0,-0.1 -0.1,-0.1 -0.1,-0.2c0,-0.1 0,-0.2 0,-0.3c0,-0.2 0,-0.4 -0.1,-0.5c-0.4,-0.7 -1.2,-0.9 -2,-0.8c-0.2,0 -0.3,0.1 -0.4,0.2c-0.2,0.1 -0.1,0.2 -0.3,0.2c-0.1,0 -0.2,0.1 -0.2,0.2c0,0.2 0,0.2 0,0.3c0,0 0,0 0,0" fill="#FFFFFF"/>
      <path id="svg_75" d="m61.8,-25.7c0,0.1 0,0.1 0,0.2c-0.1,0.1 -0.1,0.1 -0.2,0.1c-0.1,0.1 -0.1,0.3 -0.1,0.4c-0.2,0.1 0,0.2 0,0.3c0,0 0,0.1 0,0.2c0,0.1 0,0.3 0.1,0.4c0.1,0.2 0.3,0.4 0.4,0.5c0.2,0.1 0.4,0.6 0.6,0.6c0.2,0 0.4,-0.1 0.5,-0.1c0.2,0 0.4,0 0.6,-0.1c0.2,-0.1 0.1,-0.3 0.3,-0.5c0.1,-0.1 0.3,0 0.4,-0.1c0.2,-0.1 0.3,-0.3 0.4,-0.5c0,-0.1 0,-0.1 0,-0.2c0,-0.1 0.1,-0.2 0.1,-0.3c0,-0.1 -0.1,-0.1 -0.1,-0.2c0,-0.1 0,-0.2 0,-0.3c0,-0.2 0,-0.4 -0.1,-0.5c-0.4,-0.7 -1.2,-0.9 -2,-0.8c-0.2,0 -0.3,0.1 -0.4,0.2c-0.2,0.1 -0.1,0.2 -0.3,0.2c-0.1,0 -0.2,0.1 -0.2,0.2c0,0.2 0,0.2 0,0.3c0,0 0,0 0,0" fill="#FFFFFF"/>
      <path id="svg_76" d="m54.1,-25.7c0,0.1 0,0.1 0,0.2c-0.1,0.1 -0.1,0.1 -0.2,0.1c-0.1,0.1 -0.1,0.3 -0.1,0.4c-0.2,0.1 0,0.2 0,0.3c0,0 0,0.1 0,0.2c0,0.1 0,0.3 0.1,0.4c0.1,0.2 0.3,0.4 0.4,0.5c0.2,0.1 0.4,0.6 0.6,0.6c0.2,0 0.4,-0.1 0.5,-0.1c0.2,0 0.4,0 0.6,-0.1c0.2,-0.1 0.1,-0.3 0.3,-0.5c0.1,-0.1 0.3,0 0.4,-0.1c0.2,-0.1 0.3,-0.3 0.4,-0.5c0,-0.1 0,-0.1 0,-0.2c0,-0.1 0.1,-0.2 0.1,-0.3c0,-0.1 -0.1,-0.1 -0.1,-0.2c0,-0.1 0,-0.2 0,-0.3c0,-0.2 0,-0.4 -0.1,-0.5c-0.4,-0.7 -1.2,-0.9 -2,-0.8c-0.2,0 -0.3,0.1 -0.4,0.2c-0.2,0.1 -0.1,0.2 -0.3,0.2c-0.1,0 -0.2,0.1 -0.2,0.2c0,0.2 0,0.2 0,0.3c0,0 0,0 0,0" fill="#FFFFFF"/>
      <path id="svg_77" d="m46.5,-25.7c0,0.1 0,0.1 0,0.2c-0.1,0.1 -0.1,0.1 -0.2,0.1c-0.1,0.1 -0.1,0.3 -0.1,0.4c-0.2,0.1 0,0.2 0,0.3c0,0 0,0.1 0,0.2c0,0.1 0,0.3 0.1,0.4c0.1,0.2 0.3,0.4 0.4,0.5c0.2,0.1 0.4,0.6 0.6,0.6c0.2,0 0.4,-0.1 0.5,-0.1c0.2,0 0.4,0 0.6,-0.1c0.2,-0.1 0.1,-0.3 0.3,-0.5c0.1,-0.1 0.3,0 0.4,-0.1c0.2,-0.1 0.3,-0.3 0.4,-0.5c0,-0.1 0,-0.1 0,-0.2c0,-0.1 0.1,-0.2 0.1,-0.3c0,-0.1 -0.1,-0.1 -0.1,-0.2c0,-0.1 0,-0.2 0,-0.3c0,-0.2 0,-0.4 -0.1,-0.5c-0.4,-0.7 -1.2,-0.9 -2,-0.8c-0.2,0 -0.3,0.1 -0.4,0.2c-0.2,0.1 -0.1,0.2 -0.3,0.2c-0.1,0 -0.2,0.1 -0.2,0.2c0,0.2 0,0.2 0,0.3c0,0 0,0 0,0" fill="#FFFFFF"/>
      <path id="svg_78" d="m38.8,-25.7c0,0.1 0,0.1 0,0.2c-0.1,0.1 -0.1,0.1 -0.2,0.1c-0.1,0.1 -0.1,0.3 -0.1,0.4c-0.2,0.1 0,0.2 0,0.3c0,0 0,0.1 0,0.2c0,0.1 0,0.3 0.1,0.4c0.1,0.2 0.3,0.4 0.4,0.5c0.2,0.1 0.4,0.6 0.6,0.6c0.2,0 0.4,-0.1 0.5,-0.1c0.2,0 0.4,0 0.6,-0.1c0.2,-0.1 0.1,-0.3 0.3,-0.5c0.1,-0.1 0.3,0 0.4,-0.1c0.2,-0.1 0.3,-0.3 0.4,-0.5c0,-0.1 0,-0.1 0,-0.2c0,-0.1 0.1,-0.2 0.1,-0.3c0,-0.1 -0.1,-0.1 -0.1,-0.2c0,-0.1 0,-0.2 0,-0.3c0,-0.2 0,-0.4 -0.1,-0.5c-0.4,-0.7 -1.2,-0.9 -2,-0.8c-0.2,0 -0.3,0.1 -0.4,0.2c-0.2,0.1 -0.1,0.2 -0.3,0.2c-0.1,0 -0.2,0.1 -0.2,0.2c0,0.2 0,0.2 0,0.3c0,0 0,0 0,0" fill="#FFFFFF"/>
      <path id="svg_79" d="m31.1,-25.7c0,0.1 0,0.1 0,0.2c-0.1,0.1 -0.1,0.1 -0.2,0.1c-0.1,0.1 -0.1,0.3 -0.1,0.4c-0.2,0.1 0,0.2 0,0.3c0,0 0,0.1 0,0.2c0,0.1 0,0.3 0.1,0.4c0.1,0.2 0.3,0.4 0.4,0.5c0.2,0.1 0.4,0.6 0.6,0.6c0.2,0 0.4,-0.1 0.5,-0.1c0.2,0 0.4,0 0.6,-0.1c0.2,-0.1 0.1,-0.3 0.3,-0.5c0.1,-0.1 0.3,0 0.4,-0.1c0.2,-0.1 0.3,-0.3 0.4,-0.5c0,-0.1 0,-0.1 0,-0.2c0,-0.1 0.1,-0.2 0.1,-0.3c0,-0.1 -0.1,-0.1 -0.1,-0.2c0,-0.1 0,-0.2 0,-0.3c0,-0.2 0,-0.4 -0.1,-0.5c-0.4,-0.7 -1.2,-0.9 -2,-0.8c-0.2,0 -0.3,0.1 -0.4,0.2c-0.2,0.1 -0.1,0.2 -0.3,0.2c-0.1,0 -0.2,0.1 -0.2,0.2c0,0.2 0,0.2 0,0.3c0,0 0,0 0,0" fill="#FFFFFF"/>
      <path id="svg_80" d="m23.5,-25.7c0,0.1 0,0.1 0,0.2c-0.1,0.1 -0.1,0.1 -0.2,0.1c-0.1,0.1 -0.1,0.3 -0.1,0.4c-0.2,0.1 0,0.2 0,0.3c0,0 0,0.1 0,0.2c0,0.1 0,0.3 0.1,0.4c0.1,0.2 0.3,0.4 0.4,0.5c0.2,0.1 0.4,0.6 0.6,0.6c0.2,0 0.4,-0.1 0.5,-0.1c0.2,0 0.4,0 0.6,-0.1c0.2,-0.1 0.1,-0.3 0.3,-0.5c0.1,-0.1 0.3,0 0.4,-0.1c0.2,-0.1 0.3,-0.3 0.4,-0.5c0,-0.1 0,-0.1 0,-0.2c0,-0.1 0.1,-0.2 0.1,-0.3c0,-0.1 -0.1,-0.1 -0.1,-0.2c0,-0.1 0,-0.2 0,-0.3c0,-0.2 0,-0.4 -0.1,-0.5c-0.4,-0.7 -1.2,-0.9 -2,-0.8c-0.2,0 -0.3,0.1 -0.4,0.2c-0.2,0.1 -0.1,0.2 -0.3,0.2c-0.1,0 -0.2,0.1 -0.2,0.2c0,0.2 0,0.2 0,0.3c0,0 0,0 0,0" fill="#FFFFFF"/>
      <path id="svg_81" d="m15.8,-25.7c0,0.1 0,0.1 0,0.2c-0.1,0.1 -0.1,0.1 -0.2,0.1c-0.1,0.1 -0.1,0.3 -0.1,0.4c-0.2,0.1 0,0.2 0,0.3c0,0 0,0.1 0,0.2c0,0.1 0,0.3 0.1,0.4c0.1,0.2 0.3,0.4 0.4,0.5c0.2,0.1 0.4,0.6 0.6,0.6c0.2,0 0.4,-0.1 0.5,-0.1c0.2,0 0.4,0 0.6,-0.1c0.2,-0.1 0.1,-0.3 0.3,-0.5c0.1,-0.1 0.3,0 0.4,-0.1c0.2,-0.1 0.3,-0.3 0.4,-0.5c0,-0.1 0,-0.1 0,-0.2c0,-0.1 0.1,-0.2 0.1,-0.3c0,-0.1 -0.1,-0.1 -0.1,-0.2c0,-0.1 0,-0.2 0,-0.3c0,-0.2 0,-0.4 -0.1,-0.5c-0.4,-0.7 -1.2,-0.9 -2,-0.8c-0.2,0 -0.3,0.1 -0.4,0.2c-0.2,0.1 -0.1,0.2 -0.3,0.2c-0.1,0 -0.2,0.1 -0.2,0.2c0,0.2 0,0.2 0,0.3c0,0 0,0 0,0" fill="#FFFFFF"/>
      <path id="svg_82" d="m8.2,-25.7c0,0.1 0,0.1 0,0.2c-0.1,0.1 -0.2,0 -0.2,0.1c-0.1,0.1 -0.1,0.3 -0.1,0.4c-0.2,0.1 0,0.2 0,0.3c0,0 0,0.1 0,0.2c0,0.1 0,0.3 0.1,0.4c0,0.1 0.2,0.3 0.3,0.5c0.2,0.1 0.4,0.6 0.6,0.6c0.2,0 0.4,-0.1 0.5,-0.1c0.2,0 0.4,0 0.6,-0.1c0.2,-0.1 0.1,-0.3 0.3,-0.5c0.1,-0.1 0.3,0 0.4,-0.1c0.2,-0.1 0.3,-0.3 0.4,-0.5c0,-0.1 0,-0.1 0,-0.2c0,-0.1 0.1,-0.2 0.1,-0.3c0,-0.1 -0.1,-0.1 -0.1,-0.2c0,-0.1 0,-0.2 0,-0.3c0,-0.2 0,-0.4 -0.1,-0.5c-0.4,-0.7 -1.2,-0.9 -2,-0.8c-0.2,0 -0.3,0.1 -0.4,0.2c-0.2,0.1 -0.1,0.2 -0.3,0.2c-0.1,0 -0.2,0.1 -0.2,0.2c0.1,0.2 0.1,0.2 0.1,0.3c-0.1,0 -0.1,0 0,0" fill="#FFFFFF"/>
      <path id="svg_83" d="m0.5,-25.7c0,0.1 0,0.1 0,0.2c-0.1,0.1 -0.1,0.1 -0.2,0.1c-0.1,0.1 -0.1,0.3 -0.1,0.4c-0.2,0.1 0,0.2 0,0.3c0,0 0,0.1 0,0.2c0,0.1 0,0.3 0.1,0.4c0.1,0.2 0.3,0.4 0.4,0.5c0.2,0.1 0.3,0.5 0.6,0.6c0.2,0 0.4,-0.1 0.5,-0.1c0.2,0 0.4,0 0.6,-0.1c0.2,-0.1 0.1,-0.3 0.3,-0.5c0.1,-0.1 0.3,0 0.4,-0.1c0.2,-0.1 0.3,-0.3 0.4,-0.5c0,-0.1 0,-0.1 0,-0.2c0,-0.1 0.1,-0.2 0.1,-0.3c0,-0.1 -0.1,-0.1 -0.1,-0.2c0,-0.1 0,-0.2 0,-0.3c0,-0.2 0,-0.4 -0.1,-0.5c-0.4,-0.7 -1.2,-0.9 -2,-0.8c-0.2,0 -0.3,0.1 -0.4,0.2c-0.2,0.1 -0.1,0.2 -0.3,0.2c-0.1,0 -0.2,0.1 -0.2,0.2c0,0.2 0,0.2 0,0.3c0,0 0,0 0,0" fill="#FFFFFF"/>
     </g>
     <g id="svg_84">
      <path id="svg_85" d="m69.4,-18.1c0,0.1 0,0.1 0,0.2c-0.1,0.1 -0.1,0.1 -0.2,0.1c-0.1,0.1 -0.1,0.3 -0.1,0.4c-0.2,0.1 0,0.2 0,0.3c0,0 0,0.1 0,0.2c0,0.1 0,0.3 0.1,0.4c0.1,0.2 0.3,0.4 0.4,0.5c0.2,0.1 0.4,0.6 0.6,0.6c0.2,0 0.4,-0.1 0.5,-0.1c0.2,0 0.4,0 0.6,-0.1c0.2,-0.1 0.1,-0.3 0.3,-0.5c0.1,-0.1 0.3,0 0.4,-0.1c0.2,-0.1 0.3,-0.3 0.4,-0.5c0,-0.1 0,-0.1 0,-0.2c0,-0.1 0.1,-0.2 0.1,-0.3c0,-0.1 -0.1,-0.1 -0.1,-0.2c0,-0.1 0,-0.2 0,-0.3c0,-0.2 0,-0.4 -0.1,-0.5c-0.4,-0.7 -1.2,-0.9 -2,-0.8c-0.2,0 -0.3,0.1 -0.4,0.2c-0.2,0.1 -0.1,0.2 -0.3,0.2c-0.1,0 -0.2,0.1 -0.2,0.2c0,0.3 0,0.2 0,0.3c0,0.1 0,0 0,0" fill="#FFFFFF"/>
      <path id="svg_86" d="m61.8,-18.1c0,0.1 0,0.1 0,0.2c-0.1,0.1 -0.1,0.1 -0.2,0.1c-0.1,0.1 -0.1,0.3 -0.1,0.4c-0.2,0.1 0,0.2 0,0.3c0,0 0,0.1 0,0.2c0,0.1 0,0.3 0.1,0.4c0.1,0.2 0.3,0.4 0.4,0.5c0.2,0.1 0.4,0.6 0.6,0.6c0.2,0 0.4,-0.1 0.5,-0.1c0.2,0 0.4,0 0.6,-0.1c0.2,-0.1 0.1,-0.3 0.3,-0.5c0.1,-0.1 0.3,0 0.4,-0.1c0.2,-0.1 0.3,-0.3 0.4,-0.5c0,-0.1 0,-0.1 0,-0.2c0,-0.1 0.1,-0.2 0.1,-0.3c0,-0.1 -0.1,-0.1 -0.1,-0.2c0,-0.1 0,-0.2 0,-0.3c0,-0.2 0,-0.4 -0.1,-0.5c-0.4,-0.7 -1.2,-0.9 -2,-0.8c-0.2,0 -0.3,0.1 -0.4,0.2c-0.2,0.1 -0.1,0.2 -0.3,0.2c-0.1,0 -0.2,0.1 -0.2,0.2c0,0.3 0,0.2 0,0.3c0,0.1 0,0 0,0" fill="#FFFFFF"/>
      <path id="svg_87" d="m54.1,-18.1c0,0.1 0,0.1 0,0.2c-0.1,0.1 -0.1,0.1 -0.2,0.1c-0.1,0.1 -0.1,0.3 -0.1,0.4c-0.2,0.1 0,0.2 0,0.3c0,0 0,0.1 0,0.2c0,0.1 0,0.3 0.1,0.4c0.1,0.2 0.3,0.4 0.4,0.5c0.2,0.1 0.4,0.6 0.6,0.6c0.2,0 0.4,-0.1 0.5,-0.1c0.2,0 0.4,0 0.6,-0.1c0.2,-0.1 0.1,-0.3 0.3,-0.5c0.1,-0.1 0.3,0 0.4,-0.1c0.2,-0.1 0.3,-0.3 0.4,-0.5c0,-0.1 0,-0.1 0,-0.2c0,-0.1 0.1,-0.2 0.1,-0.3c0,-0.1 -0.1,-0.1 -0.1,-0.2c0,-0.1 0,-0.2 0,-0.3c0,-0.2 0,-0.4 -0.1,-0.5c-0.4,-0.7 -1.2,-0.9 -2,-0.8c-0.2,0 -0.3,0.1 -0.4,0.2c-0.2,0.1 -0.1,0.2 -0.3,0.2c-0.1,0 -0.2,0.1 -0.2,0.2c0,0.3 0,0.2 0,0.3c0,0.1 0,0 0,0" fill="#FFFFFF"/>
      <path id="svg_88" d="m46.5,-18.1c0,0.1 0,0.1 0,0.2c-0.1,0.1 -0.1,0.1 -0.2,0.1c-0.1,0.1 -0.1,0.3 -0.1,0.4c-0.2,0.1 0,0.2 0,0.3c0,0 0,0.1 0,0.2c0,0.1 0,0.3 0.1,0.4c0.1,0.2 0.3,0.4 0.4,0.5c0.2,0.1 0.4,0.6 0.6,0.6c0.2,0 0.4,-0.1 0.5,-0.1c0.2,0 0.4,0 0.6,-0.1c0.2,-0.1 0.1,-0.3 0.3,-0.5c0.1,-0.1 0.3,0 0.4,-0.1c0.2,-0.1 0.3,-0.3 0.4,-0.5c0,-0.1 0,-0.1 0,-0.2c0,-0.1 0.1,-0.2 0.1,-0.3c0,-0.1 -0.1,-0.1 -0.1,-0.2c0,-0.1 0,-0.2 0,-0.3c0,-0.2 0,-0.4 -0.1,-0.5c-0.4,-0.7 -1.2,-0.9 -2,-0.8c-0.2,0 -0.3,0.1 -0.4,0.2c-0.2,0.1 -0.1,0.2 -0.3,0.2c-0.1,0 -0.2,0.1 -0.2,0.2c0,0.3 0,0.2 0,0.3c0,0.1 0,0 0,0" fill="#FFFFFF"/>
      <path id="svg_89" d="m38.8,-18.1c0,0.1 0,0.1 0,0.2c-0.1,0.1 -0.1,0.1 -0.2,0.1c-0.1,0.1 -0.1,0.3 -0.1,0.4c-0.2,0.1 0,0.2 0,0.3c0,0 0,0.1 0,0.2c0,0.1 0,0.3 0.1,0.4c0.1,0.2 0.3,0.4 0.4,0.5c0.2,0.1 0.4,0.6 0.6,0.6c0.2,0 0.4,-0.1 0.5,-0.1c0.2,0 0.4,0 0.6,-0.1c0.2,-0.1 0.1,-0.3 0.3,-0.5c0.1,-0.1 0.3,0 0.4,-0.1c0.2,-0.1 0.3,-0.3 0.4,-0.5c0,-0.1 0,-0.1 0,-0.2c0,-0.1 0.1,-0.2 0.1,-0.3c0,-0.1 -0.1,-0.1 -0.1,-0.2c0,-0.1 0,-0.2 0,-0.3c0,-0.2 0,-0.4 -0.1,-0.5c-0.4,-0.7 -1.2,-0.9 -2,-0.8c-0.2,0 -0.3,0.1 -0.4,0.2c-0.2,0.1 -0.1,0.2 -0.3,0.2c-0.1,0 -0.2,0.1 -0.2,0.2c0,0.3 0,0.2 0,0.3c0,0.1 0,0 0,0" fill="#FFFFFF"/>
      <path id="svg_90" d="m31.1,-18.1c0,0.1 0,0.1 0,0.2c-0.1,0.1 -0.1,0.1 -0.2,0.1c-0.1,0.1 -0.1,0.3 -0.1,0.4c-0.2,0.1 0,0.2 0,0.3c0,0 0,0.1 0,0.2c0,0.1 0,0.3 0.1,0.4c0.1,0.2 0.3,0.4 0.4,0.5c0.2,0.1 0.4,0.6 0.6,0.6c0.2,0 0.4,-0.1 0.5,-0.1c0.2,0 0.4,0 0.6,-0.1c0.2,-0.1 0.1,-0.3 0.3,-0.5c0.1,-0.1 0.3,0 0.4,-0.1c0.2,-0.1 0.3,-0.3 0.4,-0.5c0,-0.1 0,-0.1 0,-0.2c0,-0.1 0.1,-0.2 0.1,-0.3c0,-0.1 -0.1,-0.1 -0.1,-0.2c0,-0.1 0,-0.2 0,-0.3c0,-0.2 0,-0.4 -0.1,-0.5c-0.4,-0.7 -1.2,-0.9 -2,-0.8c-0.2,0 -0.3,0.1 -0.4,0.2c-0.2,0.1 -0.1,0.2 -0.3,0.2c-0.1,0 -0.2,0.1 -0.2,0.2c0,0.3 0,0.2 0,0.3c0,0.1 0,0 0,0" fill="#FFFFFF"/>
      <path id="svg_91" d="m23.5,-18.1c0,0.1 0,0.1 0,0.2c-0.1,0.1 -0.1,0.1 -0.2,0.1c-0.1,0.1 -0.1,0.3 -0.1,0.4c-0.2,0.1 0,0.2 0,0.3c0,0 0,0.1 0,0.2c0,0.1 0,0.3 0.1,0.4c0.1,0.2 0.3,0.4 0.4,0.5c0.2,0.1 0.4,0.6 0.6,0.6c0.2,0 0.4,-0.1 0.5,-0.1c0.2,0 0.4,0 0.6,-0.1c0.2,-0.1 0.1,-0.3 0.3,-0.5c0.1,-0.1 0.3,0 0.4,-0.1c0.2,-0.1 0.3,-0.3 0.4,-0.5c0,-0.1 0,-0.1 0,-0.2c0,-0.1 0.1,-0.2 0.1,-0.3c0,-0.1 -0.1,-0.1 -0.1,-0.2c0,-0.1 0,-0.2 0,-0.3c0,-0.2 0,-0.4 -0.1,-0.5c-0.4,-0.7 -1.2,-0.9 -2,-0.8c-0.2,0 -0.3,0.1 -0.4,0.2c-0.2,0.1 -0.1,0.2 -0.3,0.2c-0.1,0 -0.2,0.1 -0.2,0.2c0,0.3 0,0.2 0,0.3c0,0.1 0,0 0,0" fill="#FFFFFF"/>
      <path id="svg_92" d="m15.8,-18.1c0,0.1 0,0.1 0,0.2c-0.1,0.1 -0.1,0.1 -0.2,0.1c-0.1,0.1 -0.1,0.3 -0.1,0.4c-0.2,0.1 0,0.2 0,0.3c0,0 0,0.1 0,0.2c0,0.1 0,0.3 0.1,0.4c0.1,0.2 0.3,0.4 0.4,0.5c0.2,0.1 0.4,0.6 0.6,0.6c0.2,0 0.4,-0.1 0.5,-0.1c0.2,0 0.4,0 0.6,-0.1c0.2,-0.1 0.1,-0.3 0.3,-0.5c0.1,-0.1 0.3,0 0.4,-0.1c0.2,-0.1 0.3,-0.3 0.4,-0.5c0,-0.1 0,-0.1 0,-0.2c0,-0.1 0.1,-0.2 0.1,-0.3c0,-0.1 -0.1,-0.1 -0.1,-0.2c0,-0.1 0,-0.2 0,-0.3c0,-0.2 0,-0.4 -0.1,-0.5c-0.4,-0.7 -1.2,-0.9 -2,-0.8c-0.2,0 -0.3,0.1 -0.4,0.2c-0.2,0.1 -0.1,0.2 -0.3,0.2c-0.1,0 -0.2,0.1 -0.2,0.2c0,0.3 0,0.2 0,0.3c0,0.1 0,0 0,0" fill="#FFFFFF"/>
      <path id="svg_93" d="m8.2,-18.1c0,0.1 0,0.1 0,0.2c-0.1,0.1 -0.2,0.1 -0.2,0.1c-0.1,0.1 -0.1,0.3 -0.1,0.4c-0.2,0.1 0,0.2 0,0.3c0,0 0,0.1 0,0.2c0,0.1 0,0.3 0.1,0.4c0,0.2 0.2,0.4 0.3,0.5c0.2,0.1 0.4,0.6 0.6,0.6c0.2,0 0.4,-0.1 0.5,-0.1c0.2,0 0.4,0 0.6,-0.1c0.2,-0.1 0.1,-0.3 0.3,-0.5c0.1,-0.1 0.3,0 0.4,-0.1c0.2,-0.1 0.3,-0.3 0.4,-0.5c0,-0.1 0,-0.1 0,-0.2c0,-0.1 0.1,-0.2 0.1,-0.3c0,-0.1 -0.1,-0.1 -0.1,-0.2c0,-0.1 0,-0.2 0,-0.3c0,-0.2 0,-0.4 -0.1,-0.5c-0.4,-0.7 -1.2,-0.9 -2,-0.8c-0.2,0 -0.3,0.1 -0.4,0.2c-0.2,0.1 -0.1,0.2 -0.3,0.2c-0.1,0 -0.2,0.1 -0.2,0.2c0.1,0.3 0.1,0.2 0.1,0.3c-0.1,0.1 -0.1,0 0,0" fill="#FFFFFF"/>
      <path id="svg_94" d="m0.5,-18.1c0,0.1 0,0.1 0,0.2c-0.1,0.1 -0.1,0.1 -0.2,0.1c-0.1,0.1 -0.1,0.3 -0.1,0.4c-0.2,0.1 0,0.2 0,0.3c0,0 0,0.1 0,0.2c0,0.1 0,0.3 0.1,0.4c0.1,0.2 0.3,0.4 0.4,0.5c0.2,0.1 0.4,0.6 0.6,0.6c0.2,0 0.4,-0.1 0.5,-0.1c0.2,0 0.4,0 0.6,-0.1c0.2,-0.1 0.1,-0.3 0.3,-0.5c0.1,0 0.3,0.1 0.4,0.1c0.2,-0.1 0.3,-0.3 0.4,-0.5c0,-0.1 0,-0.1 0,-0.2c0,-0.1 0.1,-0.2 0.1,-0.3c0,-0.1 -0.1,-0.1 -0.1,-0.2c0,-0.1 0,-0.2 0,-0.3c0,-0.2 0,-0.4 -0.1,-0.5c-0.4,-0.7 -1.2,-0.9 -2,-0.8c-0.2,0 -0.3,0.1 -0.4,0.2c-0.2,0.1 -0.1,0.2 -0.3,0.2c-0.1,0 -0.2,0.1 -0.2,0.2c0,0.1 0,0 0,0.1c0,0.1 0,0 0,0" fill="#FFFFFF"/>
     </g>
     <g id="svg_95">
      <path id="svg_96" d="m69.4,-10.4c0,0.1 0,0.1 0,0.2c-0.1,0.1 -0.1,0.1 -0.2,0.1c-0.1,0.1 -0.1,0.3 -0.1,0.4c-0.2,0.1 0,0.2 0,0.3c0,0 0,0.1 0,0.2c0,0.1 0,0.3 0.1,0.4c0.1,0.2 0.3,0.4 0.4,0.5c0.2,0.1 0.4,0.6 0.6,0.6c0.2,0 0.4,-0.1 0.5,-0.1c0.2,0 0.4,0 0.6,-0.1c0.2,-0.1 0.1,-0.3 0.3,-0.5c0.1,-0.1 0.3,0 0.4,-0.1c0.2,-0.1 0.3,-0.3 0.4,-0.5c0,-0.1 0,-0.1 0,-0.2c0,-0.1 0.1,-0.2 0.1,-0.3c0,-0.1 -0.1,-0.1 -0.1,-0.2c0,-0.1 0,-0.2 0,-0.3c0,-0.2 0,-0.4 -0.1,-0.5c-0.4,-0.7 -1.2,-0.9 -2,-0.8c-0.2,0 -0.3,0.1 -0.4,0.2c-0.2,0.1 -0.1,0.2 -0.3,0.2c-0.1,0 -0.2,0.1 -0.2,0.2c0,0.2 0,0.2 0,0.3c0,0 0,0 0,0" fill="#FFFFFF"/>
      <path id="svg_97" d="m61.8,-10.4c0,0.1 0,0.1 0,0.2c-0.1,0.1 -0.1,0.1 -0.2,0.1c-0.1,0.1 -0.1,0.3 -0.1,0.4c-0.2,0.1 0,0.2 0,0.3c0,0 0,0.1 0,0.2c0,0.1 0,0.3 0.1,0.4c0.1,0.2 0.3,0.4 0.4,0.5c0.2,0.1 0.4,0.6 0.6,0.6c0.2,0 0.4,-0.1 0.5,-0.1c0.2,0 0.4,0 0.6,-0.1c0.2,-0.1 0.1,-0.3 0.3,-0.4c0.1,-0.1 0.3,0 0.4,-0.1c0.2,-0.1 0.3,-0.3 0.4,-0.5c0,-0.1 0,-0.1 0,-0.2c0,-0.1 0.1,-0.2 0.1,-0.3c0,-0.1 -0.1,-0.1 -0.1,-0.2c0,-0.1 0,-0.2 0,-0.3c0,-0.2 0,-0.4 -0.1,-0.5c-0.4,-0.7 -1.2,-0.9 -2,-0.8c-0.2,0 -0.3,0.1 -0.4,0.2c-0.2,0.1 -0.1,0.2 -0.3,0.2c-0.1,0 -0.2,0.1 -0.2,0.2c0,0.1 0,0.1 0,0.2c0,0 0,0 0,0" fill="#FFFFFF"/>
      <path id="svg_98" d="m54.1,-10.4c0,0.1 0,0.1 0,0.2c-0.1,0.1 -0.1,0.1 -0.2,0.1c-0.1,0.1 -0.1,0.3 -0.1,0.4c-0.2,0.1 0,0.2 0,0.3c0,0 0,0.1 0,0.2c0,0.1 0,0.3 0.1,0.4c0.1,0.2 0.3,0.4 0.4,0.5c0.2,0.1 0.4,0.6 0.6,0.6c0.2,0 0.4,-0.1 0.5,-0.1c0.2,0 0.4,0 0.6,-0.1c0.2,-0.1 0.1,-0.3 0.3,-0.5c0.1,-0.1 0.3,0 0.4,-0.1c0.2,-0.1 0.3,-0.3 0.4,-0.5c0,-0.1 0,-0.1 0,-0.2c0,-0.1 0.1,-0.2 0.1,-0.3c0,-0.1 -0.1,-0.1 -0.1,-0.2c0,-0.1 0,-0.2 0,-0.3c0,-0.2 0,-0.4 -0.1,-0.5c-0.4,-0.7 -1.2,-0.9 -2,-0.8c-0.2,0 -0.3,0.1 -0.4,0.2c-0.2,0.1 -0.1,0.2 -0.3,0.2c-0.1,0 -0.2,0.1 -0.2,0.2c0,0.2 0,0.2 0,0.3c0,0 0,0 0,0" fill="#FFFFFF"/>
      <path id="svg_99" d="m46.5,-10.4c0,0.1 0,0.1 0,0.2c-0.1,0.1 -0.1,0.1 -0.2,0.1c-0.1,0.1 -0.1,0.3 -0.1,0.4c-0.2,0.1 0,0.2 0,0.3c0,0 0,0.1 0,0.2c0,0.1 0,0.3 0.1,0.4c0.1,0.2 0.3,0.4 0.4,0.5c0.2,0.1 0.4,0.6 0.6,0.6c0.2,0 0.4,-0.1 0.5,-0.1c0.2,0 0.4,0 0.6,-0.1c0.2,-0.1 0.1,-0.3 0.3,-0.5c0.1,-0.1 0.3,0 0.4,-0.1c0.2,-0.1 0.3,-0.3 0.4,-0.5c0,-0.1 0,-0.1 0,-0.2c0,-0.1 0.1,-0.2 0.1,-0.3c0,-0.1 -0.1,-0.1 -0.1,-0.2c0,-0.1 0,-0.2 0,-0.3c0,-0.2 0,-0.4 -0.1,-0.5c-0.4,-0.7 -1.2,-0.9 -2,-0.8c-0.2,0 -0.3,0.1 -0.4,0.2c-0.2,0.1 -0.1,0.2 -0.3,0.2c-0.1,0 -0.2,0.1 -0.2,0.2c0,0.2 0,0.2 0,0.3c0,0 0,0 0,0" fill="#FFFFFF"/>
      <path id="svg_100" d="m38.8,-10.4c0,0.1 0,0.1 0,0.2c-0.1,0.1 -0.1,0.1 -0.2,0.1c-0.1,0.1 -0.1,0.3 -0.1,0.4c-0.2,0.1 0,0.2 0,0.3c0,0 0,0.1 0,0.2c0,0.1 0,0.3 0.1,0.4c0.1,0.2 0.3,0.4 0.4,0.5c0.2,0.1 0.4,0.6 0.6,0.6c0.2,0 0.4,-0.1 0.5,-0.1c0.2,0 0.4,0 0.6,-0.1c0.2,-0.1 0.1,-0.3 0.3,-0.4c0.1,-0.1 0.3,0 0.4,-0.1c0.2,-0.1 0.3,-0.3 0.4,-0.5c0,-0.1 0,-0.1 0,-0.2c0,-0.1 0.1,-0.2 0.1,-0.3c0,-0.1 -0.1,-0.1 -0.1,-0.2c0,-0.1 0,-0.2 0,-0.3c0,-0.2 0,-0.4 -0.1,-0.5c-0.4,-0.7 -1.2,-0.9 -2,-0.8c-0.2,0 -0.3,0.1 -0.4,0.2c-0.2,0.1 -0.1,0.2 -0.3,0.2c-0.1,0 -0.2,0.1 -0.2,0.2c0,0.1 0,0.1 0,0.2c0,0 0,0 0,0" fill="#FFFFFF"/>
      <path id="svg_101" d="m31.1,-10.4c0,0.1 0,0.1 0,0.2c-0.1,0.1 -0.1,0.1 -0.2,0.1c-0.1,0.1 -0.1,0.3 -0.1,0.4c-0.2,0.1 0,0.2 0,0.3c0,0 0,0.1 0,0.2c0,0.1 0,0.3 0.1,0.4c0.1,0.2 0.3,0.4 0.4,0.5c0.2,0.1 0.4,0.6 0.6,0.6c0.2,0 0.4,-0.1 0.5,-0.1c0.2,0 0.4,0 0.6,-0.1c0.2,-0.1 0.1,-0.3 0.3,-0.5c0.1,-0.1 0.3,0 0.4,-0.1c0.2,-0.1 0.3,-0.3 0.4,-0.5c0,-0.1 0,-0.1 0,-0.2c0,-0.1 0.1,-0.2 0.1,-0.3c0,-0.1 -0.1,-0.1 -0.1,-0.2c0,-0.1 0,-0.2 0,-0.3c0,-0.2 0,-0.4 -0.1,-0.5c-0.4,-0.7 -1.2,-0.9 -2,-0.8c-0.2,0 -0.3,0.1 -0.4,0.2c-0.2,0.1 -0.1,0.2 -0.3,0.2c-0.1,0 -0.2,0.1 -0.2,0.2c0,0.2 0,0.2 0,0.3c0,0 0,0 0,0" fill="#FFFFFF"/>
      <path id="svg_102" d="m23.5,-10.4c0,0.1 0,0.1 0,0.2c-0.1,0.1 -0.1,0.1 -0.2,0.1c-0.1,0.1 -0.1,0.3 -0.1,0.4c-0.2,0.1 0,0.2 0,0.3c0,0 0,0.1 0,0.2c0,0.1 0,0.3 0.1,0.4c0.1,0.2 0.3,0.4 0.4,0.5c0.2,0.1 0.4,0.6 0.6,0.6c0.2,0 0.4,-0.1 0.5,-0.1c0.2,0 0.4,0 0.6,-0.1c0.2,-0.1 0.1,-0.3 0.3,-0.5c0.1,-0.1 0.3,0 0.4,-0.1c0.2,-0.1 0.3,-0.3 0.4,-0.5c0,-0.1 0,-0.1 0,-0.2c0,-0.1 0.1,-0.2 0.1,-0.3c0,-0.1 -0.1,-0.1 -0.1,-0.2c0,-0.1 0,-0.2 0,-0.3c0,-0.2 0,-0.4 -0.1,-0.5c-0.4,-0.7 -1.2,-0.9 -2,-0.8c-0.2,0 -0.3,0.1 -0.4,0.2c-0.2,0.1 -0.1,0.2 -0.3,0.2c-0.1,0 -0.2,0.1 -0.2,0.2c0,0.2 0,0.2 0,0.3c0,0 0,0 0,0" fill="#FFFFFF"/>
      <path id="svg_103" d="m15.8,-10.4c0,0.1 0,0.1 0,0.2c-0.1,0.1 -0.1,0.1 -0.2,0.1c-0.1,0.1 -0.1,0.3 -0.1,0.4c-0.2,0.1 0,0.2 0,0.3c0,0 0,0.1 0,0.2c0,0.1 0,0.3 0.1,0.4c0.1,0.2 0.3,0.4 0.4,0.5c0.2,0.1 0.4,0.6 0.6,0.6c0.2,0 0.4,-0.1 0.5,-0.1c0.2,0 0.4,0 0.6,-0.1c0.2,-0.1 0.1,-0.3 0.3,-0.4c0.1,-0.1 0.3,0 0.4,-0.1c0.2,-0.1 0.3,-0.3 0.4,-0.5c0,-0.1 0,-0.1 0,-0.2c0,-0.1 0.1,-0.2 0.1,-0.3c0,-0.1 -0.1,-0.1 -0.1,-0.2c0,-0.1 0,-0.2 0,-0.3c0,-0.2 0,-0.4 -0.1,-0.5c-0.4,-0.7 -1.2,-0.9 -2,-0.8c-0.2,0 -0.3,0.1 -0.4,0.2c-0.2,0.1 -0.1,0.2 -0.3,0.2c-0.1,0 -0.2,0.1 -0.2,0.2c0,0.1 0,0.1 0,0.2c0,0 0,0 0,0" fill="#FFFFFF"/>
      <path id="svg_104" d="m8.2,-10.4c0,0.1 0,0.1 0,0.2c-0.1,0.1 -0.2,0 -0.2,0.1c-0.1,0.1 -0.1,0.3 -0.1,0.3c-0.2,0.1 0,0.2 0,0.3c0,0 0,0.1 0,0.2c0,0.1 0,0.3 0.1,0.4c0,0.2 0.2,0.4 0.3,0.6c0.2,0.1 0.4,0.6 0.6,0.6c0.2,0 0.4,-0.1 0.5,-0.1c0.2,0 0.4,0 0.6,-0.1c0.2,-0.1 0.1,-0.3 0.3,-0.5c0.1,-0.1 0.3,0 0.4,-0.1c0.2,-0.1 0.3,-0.3 0.4,-0.5c0,-0.1 0,-0.1 0,-0.2c0,-0.1 0.1,-0.2 0.1,-0.3c0,-0.1 -0.1,-0.1 -0.1,-0.2c0,-0.1 0,-0.2 0,-0.3c0,-0.2 0,-0.4 -0.1,-0.5c-0.4,-0.7 -1.2,-0.9 -2,-0.8c-0.2,0 -0.3,0.1 -0.4,0.2c-0.2,0.1 -0.1,0.2 -0.3,0.2c-0.1,0 -0.2,0.1 -0.2,0.2c0.1,0.2 0.1,0.2 0.1,0.3c-0.1,0 -0.1,0 0,0" fill="#FFFFFF"/>
      <path id="svg_105" d="m0.5,-10.4c0,0.1 0,0.1 0,0.2c-0.1,0.1 -0.1,0.1 -0.2,0.1c0,0.1 -0.1,0.3 -0.1,0.3c-0.2,0.1 0,0.2 0,0.3c0,0 0,0.1 0,0.2c0,0.1 0,0.3 0.1,0.4c0.1,0.2 0.3,0.4 0.4,0.5c0.2,0.2 0.3,0.6 0.6,0.7c0.2,0 0.4,-0.1 0.5,-0.1c0.2,0 0.4,0 0.6,-0.1c0.2,-0.1 0.1,-0.3 0.3,-0.4c0.1,-0.1 0.3,0 0.4,-0.1c0.2,-0.1 0.3,-0.3 0.4,-0.5c0,-0.1 0,-0.1 0,-0.2c0,-0.1 0.1,-0.2 0.1,-0.3c0,-0.1 -0.1,-0.1 -0.1,-0.2c0,-0.1 0,-0.2 0,-0.3c0,-0.2 0,-0.4 -0.1,-0.5c-0.4,-0.7 -1.2,-0.9 -2,-0.8c-0.2,0 -0.3,0.1 -0.4,0.2c-0.2,0.1 -0.1,0.2 -0.3,0.2c-0.1,0 -0.2,0.1 -0.2,0.2c0,0.1 0,0.1 0,0.2c0,0 0,0 0,0" fill="#FFFFFF"/>
     </g>
    </g>
    <g id="svg_106">
     <path id="svg_107" d="m69.4,-2.8c0,0.1 0,0.1 0,0.2c-0.1,0.1 -0.1,0.1 -0.2,0.1c-0.1,0.1 -0.1,0.3 -0.1,0.4c-0.2,0.1 0,0.2 0,0.3c0,0 0,0.1 0,0.2c0,0.1 0,0.3 0.1,0.4c0.1,0.2 0.3,0.4 0.4,0.5c0.2,0.2 0.4,0.6 0.6,0.7c0.2,0 0.4,-0.1 0.5,-0.1c0.2,0 0.4,0 0.6,-0.1c0.2,-0.1 0.1,-0.3 0.3,-0.5c0.1,-0.1 0.3,0 0.4,-0.1c0.2,-0.1 0.3,-0.3 0.4,-0.5c0,-0.1 0,-0.1 0,-0.2c0,-0.1 0.1,-0.2 0.1,-0.3c0,-0.1 -0.1,-0.1 -0.1,-0.2c0,-0.1 0,-0.2 0,-0.3c0,-0.2 0,-0.4 -0.1,-0.5c-0.4,-0.7 -1.2,-0.9 -2,-0.8c-0.2,0 -0.3,0.1 -0.4,0.2c-0.2,0.1 -0.1,0.2 -0.3,0.2c-0.1,0 -0.2,0.1 -0.2,0.2c0,0.2 0,0.1 0,0.2c0,0.1 0,0 0,0" fill="#FFFFFF"/>
     <path id="svg_108" d="m61.8,-2.8c0,0.1 0,0.1 0,0.2c-0.1,0.1 -0.1,0.1 -0.2,0.1c-0.1,0.1 -0.1,0.3 -0.1,0.4c-0.2,0.1 0,0.2 0,0.3c0,0 0,0.1 0,0.2c0,0.1 0,0.3 0.1,0.4c0,0.2 0.2,0.4 0.4,0.5c0.2,0.1 0.4,0.6 0.6,0.6c0.2,0 0.4,-0.1 0.5,-0.1c0.2,0 0.4,0 0.6,-0.1c0.2,-0.1 0.1,-0.3 0.3,-0.5c0.1,-0.1 0.3,0 0.4,-0.1c0.2,-0.1 0.3,-0.3 0.4,-0.5c0,-0.1 0,-0.1 0,-0.2c0,-0.1 0.1,-0.2 0.1,-0.3c0,-0.1 -0.1,-0.1 -0.1,-0.2c0,-0.1 0,-0.2 0,-0.3c0,-0.2 0,-0.4 -0.1,-0.5c-0.4,-0.7 -1.2,-0.9 -2,-0.8c-0.2,0 -0.3,0.1 -0.4,0.2c-0.2,0.1 -0.1,0.2 -0.3,0.2c-0.1,0 -0.2,0.1 -0.2,0.2c0,0.3 0,0.2 0,0.3c0,0.1 0,0 0,0" fill="#FFFFFF"/>
     <path id="svg_109" d="m54.1,-2.8c0,0.1 0,0.1 0,0.2c-0.1,0.1 -0.1,0.1 -0.2,0.1c-0.1,0.1 -0.1,0.3 -0.1,0.4c-0.2,0.1 0,0.2 0,0.3c0,0 0,0.1 0,0.2c0,0.1 0,0.3 0.1,0.4c0.1,0.2 0.2,0.4 0.4,0.5c0.2,0.1 0.4,0.6 0.6,0.6c0.2,0 0.4,-0.1 0.5,-0.1c0.2,0 0.4,0 0.6,-0.1c0.2,-0.1 0.1,-0.3 0.3,-0.5c0.1,-0.1 0.3,0 0.4,-0.1c0.2,0.1 0.3,-0.1 0.4,-0.3c0,-0.1 0,-0.1 0,-0.2c0,-0.1 0.1,-0.2 0.1,-0.3c0,-0.1 -0.1,-0.1 -0.1,-0.2c0,-0.1 0,-0.2 0,-0.3c0,-0.2 0,-0.4 -0.1,-0.5c-0.4,-0.7 -1.2,-0.9 -2,-0.8c-0.2,0 -0.3,0.1 -0.4,0.2c-0.2,0.1 -0.1,0.2 -0.3,0.2c-0.1,0 -0.2,0.1 -0.2,0.2c0,0.1 0,0 0,0.1c0,0.1 0,0 0,0" fill="#FFFFFF"/>
     <path id="svg_110" d="m46.5,-2.8c0,0.1 0,0.1 0,0.2c-0.1,0.1 -0.1,0.1 -0.2,0.1c-0.1,0.1 -0.1,0.3 -0.1,0.4c-0.2,0.1 0,0.2 0,0.3c0,0 0,0.1 0,0.2c0,0.1 0,0.3 0.1,0.4c0.1,0.2 0.3,0.4 0.4,0.5c0.1,0.2 0.3,0.6 0.5,0.7c0.2,0 0.4,-0.1 0.5,-0.1c0.2,0 0.4,0 0.6,-0.1c0.2,-0.1 0.1,-0.3 0.3,-0.5c0.1,-0.1 0.3,0 0.4,-0.1c0.2,-0.1 0.3,-0.3 0.4,-0.5c0,-0.1 0,-0.1 0,-0.2c0,-0.1 0.1,-0.2 0.1,-0.3c0,-0.1 -0.1,-0.1 -0.1,-0.2c0,-0.1 0,-0.2 0,-0.3c0,-0.2 0,-0.4 -0.1,-0.5c-0.4,-0.7 -1.2,-0.9 -2,-0.8c-0.2,0 -0.3,0.1 -0.4,0.2c-0.2,0.1 -0.1,0.2 -0.3,0.2c-0.1,0 -0.2,0.1 -0.2,0.2c0.1,0.2 0.1,0.1 0.1,0.2c0,0.1 0,0 0,0" fill="#FFFFFF"/>
     <path id="svg_111" d="m38.8,-2.8c0,0.1 0,0.1 0,0.2c-0.1,0.1 -0.1,0.1 -0.2,0.1c-0.1,0.1 -0.1,0.3 -0.1,0.4c-0.2,0.1 0,0.2 0,0.3c0,0 0,0.1 0,0.2c0,0.1 0,0.3 0.1,0.4c0,0.2 0.2,0.4 0.4,0.5c0.2,0.1 0.4,0.6 0.6,0.6c0.2,0 0.4,-0.1 0.5,-0.1c0.2,0 0.4,0 0.6,-0.1c0.2,-0.1 0.1,-0.3 0.3,-0.5c0.1,-0.1 0.3,0 0.4,-0.1c0.2,-0.1 0.3,-0.3 0.4,-0.5c0,-0.1 0,-0.1 0,-0.2c0,-0.1 0.1,-0.2 0.1,-0.3c0,-0.1 -0.1,-0.1 -0.1,-0.2c0,-0.1 0,-0.2 0,-0.3c0,-0.2 0,-0.4 -0.1,-0.5c-0.4,-0.7 -1.2,-0.9 -2,-0.8c-0.2,0 -0.3,0.1 -0.4,0.2c-0.2,0.1 -0.1,0.2 -0.3,0.2c-0.1,0 -0.2,0.1 -0.2,0.2c0,0.3 0,0.2 0,0.3c0,0.1 0,0 0,0" fill="#FFFFFF"/>
     <path id="svg_112" d="m31.1,-2.8c0,0.1 0,0.1 0,0.2c-0.1,0.1 -0.1,0.1 -0.2,0.1c-0.1,0.1 -0.1,0.3 -0.1,0.4c-0.2,0.1 0,0.2 0,0.3c0,0 0,0.1 0,0.2c0,0.1 0,0.3 0.1,0.4c0.1,0.2 0.2,0.4 0.4,0.5c0.2,0.1 0.4,0.6 0.6,0.6c0.2,0 0.4,-0.1 0.5,-0.1c0.2,0 0.4,0 0.6,-0.1c0.2,-0.1 0.1,-0.3 0.3,-0.5c0.1,-0.1 0.3,0 0.4,-0.1c0.2,-0.1 0.3,-0.3 0.4,-0.5c0,-0.1 0,-0.1 0,-0.2c0,-0.1 0.1,-0.2 0.1,-0.3c0,-0.1 -0.1,-0.1 -0.1,-0.2c0,-0.1 0,-0.2 0,-0.3c0,-0.2 0,-0.4 -0.1,-0.5c-0.4,-0.7 -1.2,-0.9 -2,-0.8c-0.2,0 -0.3,0.1 -0.4,0.2c-0.2,0.1 -0.1,0.2 -0.3,0.2c-0.1,0 -0.2,0.1 -0.2,0.2c0,0.3 0,0.2 0,0.3c0,0.1 0,0 0,0" fill="#FFFFFF"/>
     <path id="svg_113" d="m23.5,-2.8c0,0.1 0,0.1 0,0.2c-0.1,0.1 -0.1,0.1 -0.2,0.1c-0.1,0.1 -0.1,0.3 -0.1,0.4c-0.2,0.1 0,0.2 0,0.3c0,0 0,0.1 0,0.2c0,0.1 0,0.3 0.1,0.4c0.1,0.2 0.3,0.4 0.4,0.5c0.1,0.2 0.3,0.6 0.6,0.7c0.2,0 0.4,-0.1 0.5,-0.1c0.2,0 0.4,0 0.6,-0.1c0.2,-0.1 0.1,-0.3 0.3,-0.5c0.1,-0.1 0.3,0 0.4,-0.1c0.2,-0.1 0.3,-0.3 0.4,-0.5c0,-0.1 0,-0.1 0,-0.2c0,-0.1 0.1,-0.2 0.1,-0.3c0,-0.1 -0.1,-0.1 -0.1,-0.2c0,-0.1 0,-0.2 0,-0.3c0,-0.2 0,-0.4 -0.1,-0.5c-0.4,-0.7 -1.2,-0.9 -2,-0.8c-0.2,0 -0.3,0.1 -0.4,0.2c-0.2,0.1 -0.1,0.2 -0.3,0.2c-0.1,0 -0.2,0.1 -0.2,0.2c0,0.2 0,0.1 0,0.2c0,0.1 0,0 0,0" fill="#FFFFFF"/>
     <path id="svg_114" d="m15.8,-2.8c0,0.1 0,0.1 0,0.2c-0.1,0.1 -0.1,0.1 -0.2,0.1c-0.1,0.1 -0.1,0.3 -0.1,0.4c-0.2,0.1 0,0.2 0,0.3c0,0 0,0.1 0,0.2c0,0.1 0,0.3 0.1,0.4c0.1,0.2 0.2,0.4 0.4,0.5c0.2,0.1 0.4,0.6 0.6,0.6c0.2,0 0.4,-0.1 0.5,-0.1c0.2,0 0.4,0 0.6,-0.1c0.2,-0.1 0.1,-0.3 0.3,-0.5c0.1,-0.1 0.3,0 0.4,-0.1c0.2,-0.1 0.3,-0.3 0.4,-0.5c0,-0.1 0,-0.1 0,-0.2c0,-0.1 0.1,-0.2 0.1,-0.3c0,-0.1 -0.1,-0.1 -0.1,-0.2c0,-0.1 0,-0.2 0,-0.3c0,-0.2 0,-0.4 -0.1,-0.5c-0.4,-0.7 -1.2,-0.9 -2,-0.8c-0.2,0 -0.3,0.1 -0.4,0.2c-0.2,0.1 -0.1,0.2 -0.3,0.2c-0.1,0 -0.2,0.1 -0.2,0.2c0,0.3 0,0.2 0,0.3c0,0.1 0,0 0,0" fill="#FFFFFF"/>
     <path id="svg_115" d="m8.2,-2.8c0,0.1 0,0.1 0,0.2c-0.1,0.1 -0.2,0.1 -0.2,0.1c-0.1,0.1 -0.1,0.3 -0.1,0.4c-0.2,0.1 0,0.2 0,0.3c0,0 0,0.1 0,0.2c0,0.1 0,0.3 0.1,0.4c0,0.2 0.2,0.4 0.3,0.5c0.2,0.2 0.4,0.6 0.6,0.7c0.2,0 0.4,-0.1 0.5,-0.1c0.2,0 0.4,0 0.6,-0.1c0.2,-0.1 0.1,-0.3 0.3,-0.5c0.1,-0.1 0.3,0 0.4,-0.1c0.2,-0.1 0.3,-0.3 0.4,-0.5c0,-0.1 0,-0.1 0,-0.2c0,-0.1 0.1,-0.2 0.1,-0.3c0,-0.1 -0.1,-0.1 -0.1,-0.2c0,-0.1 0,-0.2 0,-0.3c0,-0.2 0,-0.4 -0.1,-0.5c-0.4,-0.7 -1.2,-0.9 -2,-0.8c0,0.1 -0.2,0.2 -0.3,0.2c-0.2,0.1 -0.1,0.2 -0.3,0.3c-0.1,0 -0.2,0.1 -0.2,0.2c0,0.1 0,0 0,0.1c-0.1,0.1 -0.1,0 0,0" fill="#FFFFFF"/>
     <path id="svg_116" d="m0.5,-2.8c0,0.1 0,0.1 0,0.2c-0.1,0.1 -0.1,0.1 -0.2,0.1c0,0.1 -0.1,0.3 -0.1,0.4c-0.2,0.1 0,0.2 0,0.3c0,0 0,0.1 0,0.2c0,0.1 0,0.3 0.1,0.4c0,0.2 0.2,0.4 0.4,0.5c0.2,0.2 0.3,0.6 0.6,0.7c0.2,0 0.4,-0.1 0.5,-0.1c0.2,0 0.4,0 0.6,-0.1c0.2,-0.1 0.1,-0.3 0.3,-0.5c0.1,-0.1 0.3,0 0.4,-0.1c0.2,0 0.3,-0.2 0.4,-0.4c0,-0.1 0,-0.1 0,-0.2c0,-0.1 0.1,-0.2 0.1,-0.3c0,-0.1 -0.1,-0.1 -0.1,-0.2c0,-0.1 0,-0.2 0,-0.3c0,-0.2 0,-0.4 -0.1,-0.5c-0.4,-0.7 -1.2,-0.9 -2,-0.8c-0.1,0 -0.2,0.1 -0.4,0.1c-0.1,0.1 -0.1,0.2 -0.3,0.3c-0.1,0 -0.2,0.1 -0.2,0.2c0,0.1 0,0 0,0.1c0,0.1 0,0 0,0" fill="#FFFFFF"/>
    </g>
   </g>
  </pattern>
 </defs>
 <g>
  <title>Layer 1</title>
  <path id="svg_117" d="m130.1,48c0,0 0,0 0,0c0.1,-0.1 0.1,-0.1 0.1,-0.1c0,0 0,-0.1 0.1,-0.1c0,0 0,0 0.1,-0.1c0,0 0,-0.1 0.1,-0.1c0,0 0,0 0,0c0,0 0,0 0,0c0,0 0,-0.1 0,-0.1c0,0 0,-0.1 0,-0.1c0,0 0,-0.1 0,-0.1c0,0 0,-0.1 0,-0.1c0,0 0,-0.1 0,-0.1c0,0 0,-0.1 0,-0.1c0,0 0,-0.1 0,-0.1c0,0 0,-0.1 0,-0.1c0,0 0,-0.1 0,-0.1c0,0 0,-0.1 0,-0.1c0,0 0,0 0,0c0,0 0,0 0,-0.1c0,0 0,-0.1 -0.1,-0.1c0,0 0,0 -0.1,-0.1c0,0 0,0 -0.1,-0.1c0,0 -0.1,0 -0.1,-0.1c0,0 0,0 -0.1,0l-62.7,-30.4c-1.6,-0.8 -3.4,-0.7 -4.9,0.3l-54.8,36c0,0 0,0 0,0c0,0 0,0 0,0c-2.1,1.6 -2.1,9.4 -2,11.8c0.2,7.2 1.6,15.6 5.2,17.8c0,0 45.7,27.9 57,34.8c0.2,0.1 0.3,0.1 0.5,0.1c0.2,0 0.4,-0.1 0.6,-0.2l61.4,-44c0.3,-0.2 0.4,-0.6 0.4,-0.9c0,-0.4 -0.3,-0.7 -0.6,-0.8l-8.8,-3.7l0,-7.9c0,0 0,0 0,0l0,-5c5.1,-3.6 8.7,-5.9 8.8,-6zm-66.6,-30.2c0.9,-0.6 1.9,-0.7 2.9,-0.2l61.2,29.7c-8.1,5.3 -47.8,31.4 -57.6,38.1c-1.1,0.7 -2.4,0.8 -3.6,0.1l-56.4,-32.7l53.5,-35zm-46.7,57.3l0,-3.7l51,30.7c0,0 0.1,0 0.1,0.1l0,3.6l-51.1,-30.7zm48.6,12.1c0.8,0.5 1.7,0.7 2.6,0.7l0,5l-51.2,-29.5l0,-4.4l48.6,28.2zm2.5,12.7l-51.2,-30.8l0,-3.5l51,29.5c0,0 0.1,0 0.1,0.1l0,4.7l0.1,0zm2,1.5l49.2,-34l0,0.4c0,0 0,0 0,0l0,3.4l-49.2,34.5l0,-4.3zm49.2,-36.4l-49.2,34l0,-4.6l49.2,-33.6l0,4.2zm8.4,6.8l-59.4,42.6c-12.1,-7.4 -56.4,-34.4 -56.4,-34.4c-2,-1.2 -3.6,-6.2 -4.1,-12.9c-0.5,-6.2 0.1,-11.4 0.8,-13l6.4,3.7l0,17.8c0,0.3 0.2,0.7 0.5,0.8l53.1,31.8c0,0 0,0 0,0c0.1,0 0.1,0.1 0.2,0.1c0,0 0,0 0.1,0c0.1,0 0.2,0 0.2,0c0.1,0 0.2,0 0.3,0c0,0 0,0 0.1,0c0.1,0 0.2,-0.1 0.2,-0.1c0,0 0,0 0,0l51.2,-35.8c0.3,-0.2 0.4,-0.5 0.4,-0.8c0,0 0,0 0,0l0,0l0,0l0,-2.5l6.4,2.7zm-8.4,-13.3l-49.2,33.5l0,-4.4c0.4,-0.1 0.8,-0.3 1.1,-0.6c7.6,-5.1 33.2,-22 48.1,-31.8l0,3.3z"/>
 </g>
</svg>