<?xml version="1.0" encoding="UTF-8"?>
<svg xmlns="http://www.w3.org/2000/svg" xmlns:xlink="http://www.w3.org/1999/xlink" width="74px" height="75px" viewBox="0 0 74 74" version="1.1">
<g id="surface1">
<path style=" stroke:none;fill-rule:nonzero;fill:#fff;fill-opacity:1;" d="M 21.226562 7.867188 C 12.390625 11.089844 5.105469 13.804688 4.992188 13.914062 C 4.679688 14.234375 3.71875 16.25 3.507812 17.058594 C 3.207031 18.179688 3.230469 20.007812 3.550781 21.046875 C 4.03125 22.585938 4.433594 23.128906 6.613281 25.234375 C 7.707031 26.308594 8.589844 27.195312 8.570312 27.207031 C 8.546875 27.230469 7.304688 27.695312 5.820312 28.25 C 4.324219 28.792969 3.027344 29.324219 2.949219 29.433594 C 2.625 29.84375 1.6875 31.871094 1.496094 32.570312 C 1.363281 33.054688 1.296875 33.6875 1.296875 34.5625 C 1.308594 35.660156 1.339844 35.957031 1.609375 36.722656 C 1.777344 37.210938 2.101562 37.898438 2.3125 38.25 C 2.613281 38.75 6.792969 42.847656 20.253906 55.84375 C 31.203125 66.410156 37.871094 72.78125 38.003906 72.78125 C 38.308594 72.78125 70.402344 57.847656 70.582031 57.625 C 70.648438 57.527344 70.714844 57.394531 70.714844 57.339844 C 70.714844 57.273438 70.234375 56.761719 69.652344 56.207031 L 68.59375 55.199219 L 68.59375 49.394531 L 69.566406 48.953125 C 70.613281 48.476562 70.714844 48.386719 70.636719 48.066406 C 70.59375 47.902344 69.175781 46.617188 67.21875 44.976562 C 67.175781 44.933594 68.390625 44.3125 69.933594 43.589844 C 72.210938 42.527344 72.726562 42.238281 72.726562 42.0625 C 72.726562 41.929688 72.289062 41.410156 71.664062 40.777344 L 70.605469 39.703125 L 70.605469 33.953125 L 71.621094 33.488281 C 72.570312 33.054688 72.625 33 72.59375 32.710938 C 72.570312 32.457031 69.585938 29.820312 55.074219 17.203125 C 45.457031 8.839844 37.515625 2.003906 37.425781 2.003906 C 37.335938 2.015625 30.039062 4.652344 21.226562 7.867188 Z M 60.191406 22.863281 C 66.292969 28.160156 71.242188 32.535156 71.195312 32.578125 C 71.0625 32.710938 40.53125 46.882812 40.25 46.9375 C 40.0625 46.980469 36.976562 44.066406 23.160156 30.71875 C 13.898438 21.777344 6.289062 14.414062 6.257812 14.347656 C 6.222656 14.289062 13.183594 11.6875 21.730469 8.585938 L 37.246094 2.925781 L 43.179688 8.074219 C 46.429688 10.910156 54.09375 17.558594 60.191406 22.863281 Z M 24.421875 33.320312 L 39.378906 47.757812 L 38.910156 48.71875 C 38.21875 50.128906 37.9375 51.445312 38.015625 52.929688 C 38.050781 53.582031 38.117188 54.238281 38.160156 54.382812 C 38.273438 54.746094 5.652344 23.195312 5.117188 22.421875 C 4.023438 20.835938 3.789062 18.832031 4.480469 16.816406 C 4.714844 16.128906 5.070312 15.34375 5.273438 15.097656 C 5.363281 15 5.921875 15.476562 7.429688 16.925781 C 8.546875 18 16.199219 25.378906 24.421875 33.320312 Z M 24.824219 42.960938 C 34.609375 52.410156 39.726562 57.273438 39.871094 57.273438 C 39.992188 57.273438 45.871094 54.582031 52.929688 51.289062 C 59.992188 48 65.8125 45.308594 65.878906 45.308594 C 65.988281 45.308594 69.074219 47.921875 69.117188 48.054688 C 69.140625 48.101562 62.148438 51.402344 53.589844 55.390625 L 38.027344 62.65625 L 21.113281 46.328125 C 11.808594 37.355469 4.179688 29.964844 4.15625 29.921875 C 4.144531 29.875 5.273438 29.410156 6.667969 28.890625 L 9.214844 27.949219 L 9.609375 28.304688 C 9.820312 28.492188 16.667969 35.09375 24.824219 42.960938 Z M 19.953125 46.460938 C 29.035156 55.222656 36.664062 62.578125 36.898438 62.800781 L 37.324219 63.210938 L 36.867188 64.175781 C 36.195312 65.601562 35.949219 66.621094 35.949219 68.074219 C 35.949219 68.738281 36.003906 69.457031 36.074219 69.667969 C 36.140625 69.878906 36.183594 70.066406 36.164062 70.078125 C 36.152344 70.089844 28.699219 62.910156 19.605469 54.125 C 4.367188 39.402344 3.039062 38.097656 2.714844 37.441406 C 1.710938 35.460938 1.789062 33.300781 2.949219 31.039062 C 3.117188 30.71875 3.296875 30.464844 3.339844 30.484375 C 3.386719 30.507812 10.859375 37.699219 19.953125 46.460938 Z M 69.519531 40.886719 C 69.464844 40.933594 63.175781 43.824219 55.523438 47.335938 C 47.871094 50.835938 41.109375 53.9375 40.507812 54.214844 C 39.816406 54.535156 39.355469 54.691406 39.289062 54.625 C 39.101562 54.4375 38.875 53.238281 38.875 52.386719 C 38.875 51.300781 39.199219 50.027344 39.769531 48.910156 L 40.21875 48.023438 L 53.085938 42.039062 C 60.167969 38.75 66.773438 35.683594 67.753906 35.214844 L 69.542969 34.386719 L 69.574219 37.597656 C 69.585938 39.359375 69.566406 40.84375 69.519531 40.886719 Z M 70.75 42.21875 C 70.046875 42.527344 50.382812 51.632812 44.195312 54.515625 C 42.105469 55.476562 40.339844 56.277344 40.273438 56.277344 C 40.207031 56.277344 40.070312 56.140625 39.972656 55.964844 L 39.792969 55.667969 L 55.007812 48.699219 C 63.890625 44.632812 70.300781 41.628906 70.4375 41.488281 L 70.660156 41.230469 L 71.027344 41.574219 L 71.386719 41.917969 Z M 67.476562 53.195312 L 67.464844 56.441406 L 63.644531 58.179688 C 61.542969 59.144531 54.820312 62.222656 48.707031 65.027344 C 42.597656 67.828125 37.480469 70.15625 37.347656 70.1875 C 37.132812 70.246094 37.101562 70.179688 36.933594 69.46875 C 36.554688 67.828125 36.777344 66.246094 37.613281 64.582031 L 38.152344 63.53125 L 52.730469 56.75 C 60.75 53.019531 67.339844 49.972656 67.398438 49.960938 C 67.441406 49.960938 67.476562 51.421875 67.476562 53.195312 Z M 69.175781 57.40625 C 69.128906 57.449219 62.136719 60.71875 53.625 64.683594 C 38.25 71.839844 38.152344 71.882812 37.960938 71.652344 C 37.847656 71.53125 37.757812 71.375 37.757812 71.296875 C 37.757812 71.230469 44.652344 68.007812 53.074219 64.140625 C 63.667969 59.289062 68.414062 57.050781 68.457031 56.917969 C 68.503906 56.75 68.546875 56.761719 68.882812 57.027344 C 69.085938 57.183594 69.21875 57.359375 69.175781 57.40625 Z M 69.175781 57.40625 "/>
</g>
</svg>
